<svg xmlns="http://www.w3.org/2000/svg" width="30" height="30" viewBox="0 0 30 30"><g><g transform="rotate(-90 273 268)"><path fill="#fff" d="M15.001 27.992c-7.163 0-12.991-5.827-12.991-12.989C2.01 7.841 7.838 2.013 15 2.013c7.163-.001 12.99 5.826 12.99 12.99.001 7.16-5.827 12.99-12.99 12.99zm0-27.992C6.717 0 0 6.716 0 14.999-.002 23.286 6.715 30 15.001 30 23.285 30 30 23.284 30 15.001 30.002 6.716 23.285 0 15.001 0z"/></g><g transform="rotate(-90 273 268)"><path fill="#fff" d="M20.604 11.626l-5.91 5.843-5.91-5.843a1.031 1.031 0 0 0-1.445 0 1.003 1.003 0 0 0 0 1.428l6.63 6.552c.2.203.463.295.725.295.264 0 .525-.099.726-.295l6.627-6.552a1.003 1.003 0 0 0 0-1.428 1.029 1.029 0 0 0-1.443 0z"/></g></g></svg>