<svg xmlns="http://www.w3.org/2000/svg" width="20" height="20" viewBox="0 0 20 20"><g><g><g><path fill="#fff" d="M18.657 16.409l-.414.414-3.315-3.315.414-.414a.587.587 0 0 1 .829 0l2.486 2.486c.229.229.229.6 0 .829zm-8.207.913l-7.766-7.77a5.155 5.155 0 0 1-.324-6.958L5.666 5.9a2.503 2.503 0 0 0 .109 3.426l4.901 4.906c.94.94 2.44.979 3.427.11l3.305 3.305a5.146 5.146 0 0 1-6.958-.324zM3.587 1.343a.587.587 0 0 1 .83 0l2.485 2.478c.23.23.23.6 0 .83l-.414.414-3.313-3.313zm15.899 13.408l-2.487-2.486a1.76 1.76 0 0 0-2.486 0l-1.13 1.13c-.52.52-1.364.52-1.884 0L6.601 8.493a1.331 1.331 0 0 1 0-1.884l1.13-1.13a1.757 1.757 0 0 0 0-2.487L5.244.514A1.76 1.76 0 0 0 2.76.512l-.906.899a6.347 6.347 0 0 0 0 8.965l7.762 7.766a6.337 6.337 0 0 0 8.966 0l.904-.904a1.76 1.76 0 0 0 0-2.487z"/></g></g></g></svg>