<svg xmlns="http://www.w3.org/2000/svg" width="22" height="16" viewBox="0 0 22 16"><g><g><g><path fill="#fff" d="M2.75 14.677c-.139 0-.265-.04-.392-.077L8.32 7.983l2.233 1.858a.692.692 0 0 0 .447.162c.16 0 .319-.053.447-.162l2.233-1.858 5.962 6.617c-.126.038-.252.077-.392.077zm-1.32-1.093c-.02-.087-.055-.168-.055-.26V2.666c0-.138.04-.262.081-.387l5.82 4.831zm17.82-12.25c.091 0 .172.033.258.05L11 8.466 2.492 1.384c.086-.017.167-.05.258-.05zm-4.526 5.782l5.83-4.837c.04.125.081.25.081.388v10.666c0 .093-.036.175-.055.262zM19.25 0H2.75C1.231 0 0 1.194 0 2.667v10.666C0 14.806 1.231 16 2.75 16h16.5c1.519 0 2.75-1.194 2.75-2.667V2.667C22 1.194 20.769 0 19.25 0z"/></g></g></g></svg>