<svg xmlns="http://www.w3.org/2000/svg" width="35" height="35" viewBox="0 0 35 35"><g><g transform="matrix(-1 0 0 1 35 0)"><g><path fill="#7f8b9c" d="M17.505 32.677c-8.365 0-15.172-6.807-15.172-15.172S9.14 2.333 17.505 2.333 32.677 9.14 32.677 17.505 25.87 32.677 17.505 32.677zM17.5 0C7.835 0 0 7.835 0 17.5 0 27.167 7.835 35 17.5 35 27.167 35 35 27.167 35 17.5 35 7.835 27.167 0 17.5 0z"/></g><g><path fill="#7f8b9c" d="M23.999 9.343l-6.452 6.453-5.79-6.453a1.174 1.174 0 0 0-1.66 1.66l5.79 6.452-6.544 6.542a1.174 1.174 0 0 0 1.66 1.66l6.455-6.45 5.79 6.45a1.172 1.172 0 1 0 1.657-1.66l-5.792-6.45 6.544-6.544a1.172 1.172 0 1 0-1.658-1.66z"/></g></g></g></svg>