<svg xmlns="http://www.w3.org/2000/svg" width="20" height="20" viewBox="0 0 20 20"><g><g transform="rotate(-90 10 10)"><g><path fill="#54bbbf" d="M10 18.662c-4.775 0-8.66-3.885-8.66-8.66s3.885-8.66 8.66-8.66c4.776-.001 8.66 3.884 8.66 8.66.001 4.773-3.884 8.66-8.66 8.66zM10 0C4.479 0 0 4.477 0 10c-.001 5.524 4.476 10 10 10s10-4.477 10-10c.001-5.523-4.476-10-10-10z"/></g><g><path fill="#54bbbf" d="M13.592 7.829l-3.927 3.928L5.74 7.83a.68.68 0 0 0-.96.96l4.404 4.405a.683.683 0 0 0 .964 0l4.404-4.405a.68.68 0 0 0-.959-.96z"/></g></g></g></svg>