<svg xmlns="http://www.w3.org/2000/svg" width="97" height="105" viewBox="0 0 97 105"><g><g><g><path fill="#e5fcfa" d="M55.827 0h4.885c8.98.487 14.732 5.91 19.516 12.746 7.311 10.448 10.79 22.394 13.623 34.613 1.906 8.225 2.4 16.602 3.149 24.959v1.39c-.564 1.391-.564 2.782 0 4.173v11.126c-.74 4.324-1.823 8.448-5.142 11.703-2.686 2.632-5.954 3.718-9.513 4.29h-9.77c-11.31-.993-21.192-6.544-31.74-9.955-8.956-2.895-17.672-6.508-26.762-9.019-1.456-.402-2.93-.818-4.25-1.556C4.699 81.604.44 78.055 0 71.623v-9.04c.825-10.08 7.42-14.505 16.39-16.576 3.055-.704 6.138-1.276 9.295-1.169 3.042.104 6.011-.358 8.954-1.052 5.335-1.258 6.768-2.979 6.846-8.385.063-4.39-.001-8.782.023-13.174.025-4.461 1.028-8.724 2.888-12.755C46.676 4.528 50.024.767 55.827 0"/></g><g><g><path fill="#54bbbf" d="M67.147 43.698c.548-.255.787-.908.532-1.457-1.344-2.9-4.873-4.397-8.053-2.798-2.245-3.586-6.836-5.054-10.762-3.224a1.1 1.1 0 0 0-.532 1.457c.255.55.906.787 1.454.533 2.972-1.386 6.411-.184 8.042 2.591-1.523 1.726-1.985 4.256-.956 6.477.186.4.58.635.993.635.79 0 1.33-.828.992-1.56a3.788 3.788 0 0 1 1.83-5.021 3.77 3.77 0 0 1 5.007 1.835c.255.55.905.787 1.453.532"/></g><g><path fill="none" stroke="#54bbbf" stroke-miterlimit="50" d="M67.147 43.698c.548-.255.787-.908.532-1.457-1.344-2.9-4.873-4.397-8.053-2.798-2.245-3.586-6.836-5.054-10.762-3.224a1.1 1.1 0 0 0-.532 1.457c.255.55.906.787 1.454.533 2.972-1.386 6.411-.184 8.042 2.591-1.523 1.726-1.985 4.256-.956 6.477.186.4.58.635.993.635.79 0 1.33-.828.992-1.56a3.788 3.788 0 0 1 1.83-5.021 3.77 3.77 0 0 1 5.007 1.835c.255.55.905.787 1.453.532z"/></g><g><path fill="#54bbbf" d="M37.57 47.67c.548.253 1.197.011 1.45-.54a1.098 1.098 0 0 0-.539-1.454c-3.112-1.43-6.974-.353-8.724 3.075-1.936-.591-4.078-.53-6.054.39a1.099 1.099 0 0 0-.53 1.458c.254.55.905.788 1.452.533 3.163-1.474 6.93-.093 8.4 3.078.185.4.58.635.993.635.79 0 1.331-.827.992-1.56a8.464 8.464 0 0 0-3.243-3.648c1.233-2.255 3.756-2.907 5.802-1.966"/></g><g><path fill="none" stroke="#54bbbf" stroke-miterlimit="50" d="M37.57 47.67c.548.253 1.197.011 1.45-.54a1.098 1.098 0 0 0-.539-1.454c-3.112-1.43-6.974-.353-8.724 3.075-1.936-.591-4.078-.53-6.054.39a1.099 1.099 0 0 0-.53 1.458c.254.55.905.788 1.452.533 3.163-1.474 6.93-.093 8.4 3.078.185.4.58.635.993.635.79 0 1.331-.827.992-1.56a8.464 8.464 0 0 0-3.243-3.648c1.233-2.255 3.756-2.907 5.802-1.966z"/></g><g><path fill="#54bbbf" d="M56.576 56.783a1.099 1.099 0 0 0-.25 1.532 1.092 1.092 0 0 0 1.526.251 4.51 4.51 0 0 1 6.306 1.04c.213.298.549.456.89.456.876 0 1.412-1.004.888-1.736a6.692 6.692 0 0 0-9.36-1.543"/></g><g><path fill="none" stroke="#54bbbf" stroke-miterlimit="50" d="M56.576 56.783a1.099 1.099 0 0 0-.25 1.532 1.092 1.092 0 0 0 1.526.251 4.51 4.51 0 0 1 6.306 1.04c.213.298.549.456.89.456.876 0 1.412-1.004.888-1.736a6.692 6.692 0 0 0-9.36-1.543z"/></g><g><path fill="#54bbbf" d="M47.403 51.13a4.518 4.518 0 0 1-5.191 3.736 1.098 1.098 0 0 0-.355 2.166 6.71 6.71 0 0 0 7.706-5.546 1.094 1.094 0 1 0-2.16-.356"/></g><g><path fill="none" stroke="#54bbbf" stroke-miterlimit="50" d="M47.403 51.13a4.518 4.518 0 0 1-5.191 3.736 1.098 1.098 0 0 0-.355 2.166 6.71 6.71 0 0 0 7.706-5.546 1.094 1.094 0 1 0-2.16-.356z"/></g><g><path fill="#54bbbf" d="M82.614 49.689c.528-3.499-1.752-7.31-5.146-8.67.122-1.276-.17-2.625-.86-3.893a1.092 1.092 0 0 0-1.484-.438c-.53.29-.727.955-.437 1.488.594 1.094.769 2.29.478 3.283-.177.603.187 1.23.794 1.376 3.013.724 5.155 4.239 4.386 7.023a1.1 1.1 0 0 0 .468 1.219c1.96 1.248 2.627 4.6 1.12 7.301-.475-1.105-1.28-2.462-2.75-3.742a1.092 1.092 0 0 0-1.543.108 1.1 1.1 0 0 0 .108 1.547c1.416 1.235 2.336 2.733 2.698 4.576.01.054-.012.108.006.16 1.366 3.996-2.65 8.889-6.067 7.347-.068-.031-.137.01-.207-.006-.76-.468-1.595-.79-2.517-.79h-5.403c-.604 0-1.094.49-1.094 1.097 0 .605.49 1.097 1.094 1.097h5.402c1.776 0 3.08 1.678 2.64 3.406-.014.056-.09.478-.4 2.144a4.828 4.828 0 0 1-4.671 3.614h-6.937a4.828 4.828 0 0 1-4.672-3.614c-.31-1.666-.385-2.088-.4-2.144-.438-1.726.862-3.406 2.64-3.406h1.71c.605 0 1.094-.492 1.094-1.097 0-.607-.49-1.097-1.094-1.097h-1.71c-3.197 0-5.531 3.006-4.77 6.105.297 1.595.387 2.093.401 2.147a7.016 7.016 0 0 0 6.8 5.3h6.26l2.858 13.168a2.009 2.009 0 0 1-.398 1.69c-1.08 1.344-3.275.796-3.546-.965-.613-3.975-4.27-7.63-12.228-12.222-5.39-3.11-7.016-7.597-6.366-11.461 1.995.915 1.66 1.863 2.697 1.863.875 0 1.413-1.003.888-1.736-.916-1.28-2.23-2.04-3.635-2.441-.105-.103-.17-.24-.317-.295a1.09 1.09 0 0 0-.841.037c-1.566-.156-3.19.167-4.566 1.157a1.098 1.098 0 0 0-.25 1.531 1.092 1.092 0 0 0 1.526.251c.714-.514 1.529-.707 2.347-.758-.134.817-.18 1.932-.066 3.18-8.436 1.653-13.486-.758-16.687-8.026-.264-1.1-.515-2.89-.273-3.642a1.094 1.094 0 1 0-2.083-.674c-.353 1.096-.174 2.664.019 3.768-2.066.156-3.608-.96-3.898-1.73a1.093 1.093 0 0 0-.636-.64c-.619-.235-.892.13-1.515.304-3.121.872-6.213-3.232-5.321-7.016.267-1.134-1.083-1.134-1.798-3.71-.764-2.753.334-5.476 2.45-6.07a1.1 1.1 0 0 0 .726-1.45c-1.293-3.38.94-7.64 3.99-7.761.55-.022.999-.45 1.047-1 .295-3.35 3.758-6.179 6.62-5.355.474.136.982-.063 1.238-.486 1.373-2.274 4.535-3.444 6.982-2.6-.41.623-.777 1.44-.839 2.324-.229.05-.477.08-.68.146-1.616.532-2.7 1.588-2.745 1.632a1.1 1.1 0 0 0-.013 1.552 1.09 1.09 0 0 0 1.547.013c.12-.119 2.976-2.869 5.884 0 .214.21.49.314.767.314.973 0 1.466-1.19.768-1.879-1.132-1.115-2.27-1.641-3.32-1.839.154-.75.825-1.586 1.09-1.85.015-.015.009-.04.023-.056 2.749-2.98 7.175-2.683 8.808-.36a1.094 1.094 0 0 0 1.628.181c2.538-2.298 7.389-1.579 8.81 1.346.23.473.762.715 1.268.58 2.926-.788 6.464 1.159 7.18 3.964.135.528.635.879 1.174.82.897-.094 1.853.07 2.77.472a1.093 1.093 0 0 0 1.441-.562 1.1 1.1 0 0 0-.561-1.447 7.891 7.891 0 0 0-2.987-.681c-1.338-3.27-5.18-5.38-8.754-4.857-2.253-3.298-7.422-4.206-10.924-1.94-2.801-2.658-7.86-2.447-10.844.37-3.228-1.588-7.62-.424-9.9 2.566-3.677-.506-7.62 2.478-8.479 6.556-3.766.813-6.315 5.375-5.346 9.59-3.724 1.985-4.365 7.853-1.264 11.553-.839 5.342 3.698 10.381 8.237 9.029 1.215 1.517 3.803 2.555 6.062 2.186 3.871 8.075 10.138 10.186 18.72 8.526.748 2.615 2.615 5.818 7.11 8.413 7.222 4.167 10.663 7.454 11.157 10.655a4.183 4.183 0 0 0 4.146 3.574c2.68 0 4.668-2.481 4.1-5.1l-2.813-12.957c2.916-.652 4.905-2.974 5.309-5.115.21-1.894.947-2.796.09-5 4.438-.373 7.598-5.335 6.582-9.758 2.967-3.172 3.011-8.664-.103-11.313"/></g><g><path fill="none" stroke="#54bbbf" stroke-miterlimit="50" d="M82.614 49.689c.528-3.499-1.752-7.31-5.146-8.67.122-1.276-.17-2.625-.86-3.893a1.092 1.092 0 0 0-1.484-.438c-.53.29-.727.955-.437 1.488.594 1.094.769 2.29.478 3.283-.177.603.187 1.23.794 1.376 3.013.724 5.155 4.239 4.386 7.023a1.1 1.1 0 0 0 .468 1.219c1.96 1.248 2.627 4.6 1.12 7.301-.475-1.105-1.28-2.462-2.75-3.742a1.092 1.092 0 0 0-1.543.108 1.1 1.1 0 0 0 .108 1.547c1.416 1.235 2.336 2.733 2.698 4.576.01.054-.012.108.006.16 1.366 3.996-2.65 8.889-6.067 7.347-.068-.031-.137.01-.207-.006-.76-.468-1.595-.79-2.517-.79h-5.403c-.604 0-1.094.49-1.094 1.097 0 .605.49 1.097 1.094 1.097h5.402c1.776 0 3.08 1.678 2.64 3.406-.014.056-.09.478-.4 2.144a4.828 4.828 0 0 1-4.671 3.614h-6.937a4.828 4.828 0 0 1-4.672-3.614c-.31-1.666-.385-2.088-.4-2.144-.438-1.726.862-3.406 2.64-3.406h1.71c.605 0 1.094-.492 1.094-1.097 0-.607-.49-1.097-1.094-1.097h-1.71c-3.197 0-5.531 3.006-4.77 6.105.297 1.595.387 2.093.401 2.147a7.016 7.016 0 0 0 6.8 5.3h6.26v0l2.858 13.168a2.009 2.009 0 0 1-.398 1.69c-1.08 1.344-3.275.796-3.546-.965-.613-3.975-4.27-7.63-12.228-12.222-5.39-3.11-7.016-7.597-6.366-11.461 1.995.915 1.66 1.863 2.697 1.863.875 0 1.413-1.003.888-1.736-.916-1.28-2.23-2.04-3.635-2.441-.105-.103-.17-.24-.317-.295a1.09 1.09 0 0 0-.841.037c-1.566-.156-3.19.167-4.566 1.157a1.098 1.098 0 0 0-.25 1.531 1.092 1.092 0 0 0 1.526.251c.714-.514 1.529-.707 2.347-.758-.134.817-.18 1.932-.066 3.18-8.436 1.653-13.486-.758-16.687-8.026-.264-1.1-.515-2.89-.273-3.642a1.094 1.094 0 1 0-2.083-.674c-.353 1.096-.174 2.664.019 3.768-2.066.156-3.608-.96-3.898-1.73a1.093 1.093 0 0 0-.636-.64c-.619-.235-.892.13-1.515.304-3.121.872-6.213-3.232-5.321-7.016.267-1.134-1.083-1.134-1.798-3.71-.764-2.753.334-5.476 2.45-6.07a1.1 1.1 0 0 0 .726-1.45c-1.293-3.38.94-7.64 3.99-7.761.55-.022.999-.45 1.047-1 .295-3.35 3.758-6.179 6.62-5.355.474.136.982-.063 1.238-.486 1.373-2.274 4.535-3.444 6.982-2.6-.41.623-.777 1.44-.839 2.324-.229.05-.477.08-.68.146-1.616.532-2.7 1.588-2.745 1.632a1.1 1.1 0 0 0-.013 1.552 1.09 1.09 0 0 0 1.547.013c.12-.119 2.976-2.869 5.884 0 .214.21.49.314.767.314.973 0 1.466-1.19.768-1.879-1.132-1.115-2.27-1.641-3.32-1.839.154-.75.825-1.586 1.09-1.85.015-.015.009-.04.023-.056 2.749-2.98 7.175-2.683 8.808-.36a1.094 1.094 0 0 0 1.628.181c2.538-2.298 7.389-1.579 8.81 1.346.23.473.762.715 1.268.58 2.926-.788 6.464 1.159 7.18 3.964.135.528.635.879 1.174.82.897-.094 1.853.07 2.77.472a1.093 1.093 0 0 0 1.441-.562 1.1 1.1 0 0 0-.561-1.447 7.891 7.891 0 0 0-2.987-.681c-1.338-3.27-5.18-5.38-8.754-4.857-2.253-3.298-7.422-4.206-10.924-1.94-2.801-2.658-7.86-2.447-10.844.37-3.228-1.588-7.62-.424-9.9 2.566-3.677-.506-7.62 2.478-8.479 6.556-3.766.813-6.315 5.375-5.346 9.59-3.724 1.985-4.365 7.853-1.264 11.553-.839 5.342 3.698 10.381 8.237 9.029 1.215 1.517 3.803 2.555 6.062 2.186 3.871 8.075 10.138 10.186 18.72 8.526.748 2.615 2.615 5.818 7.11 8.413 7.222 4.167 10.663 7.454 11.157 10.655a4.183 4.183 0 0 0 4.146 3.574c2.68 0 4.668-2.481 4.1-5.1l-2.813-12.957c2.916-.652 4.905-2.974 5.309-5.115.21-1.894.947-2.796.09-5 4.438-.373 7.598-5.335 6.582-9.758 2.967-3.172 3.011-8.664-.103-11.313z"/></g></g></g></g></svg>