<svg xmlns="http://www.w3.org/2000/svg" width="82" height="82" viewBox="0 0 82 82"><defs><clipPath id="7o51a"><path d="M1 80.933h79.933V1H1z"/></clipPath></defs><g><g><g><path fill="#3bbfc0" d="M76.892 1.05a3.982 3.982 0 0 1 3.992 3.992v71.85a3.982 3.982 0 0 1-3.992 3.992H5.042a3.982 3.982 0 0 1-3.992-3.992V5.042A3.982 3.982 0 0 1 5.042 1.05zm1.33 13.306H3.713v62.526c0 .732.598 1.33 1.33 1.33h71.85c.732 0 1.33-.598 1.33-1.33zm0-2.662V5.042c0-.732-.598-1.33-1.33-1.33H5.042c-.732 0-1.33.598-1.33 1.33v6.652z"/></g><g><path fill="none" stroke="#3bbfc0" stroke-miterlimit="50" stroke-width=".6" d="M80.884 5.042v71.85a3.982 3.982 0 0 1-3.992 3.992H5.042a3.982 3.982 0 0 1-3.992-3.992V5.042A3.982 3.982 0 0 1 5.042 1.05h71.85a3.982 3.982 0 0 1 3.992 3.992zm-2.661 9.314H3.71v62.526c0 .732.599 1.33 1.33 1.33h71.851c.732 0 1.33-.598 1.33-1.33zm0-2.662V5.042c0-.732-.6-1.33-1.331-1.33H5.042c-.732 0-1.33.598-1.33 1.33v6.652z"/></g><g/><g clip-path="url(#7o51a)"><path fill="#3bbfc0" d="M6.37 9.031h2.661V6.37H6.37z"/></g><g clip-path="url(#7o51a)"><path fill="none" stroke="#3bbfc0" stroke-miterlimit="50" stroke-width=".6" d="M6.37 9.031v0h2.661v0V6.37v0H6.37v0z"/></g><g clip-path="url(#7o51a)"><path fill="#3bbfc0" d="M11.69 9.031h2.661V6.37H11.69z"/></g><g clip-path="url(#7o51a)"><path fill="none" stroke="#3bbfc0" stroke-miterlimit="50" stroke-width=".6" d="M11.69 9.031v0h2.661v0V6.37v0H11.69v0z"/></g><g clip-path="url(#7o51a)"><path fill="#3bbfc0" d="M17.02 9.031h2.661V6.37H17.02z"/></g><g clip-path="url(#7o51a)"><path fill="none" stroke="#3bbfc0" stroke-miterlimit="50" stroke-width=".6" d="M17.02 9.031v0h2.661v0V6.37v0H17.02v0z"/></g><g clip-path="url(#7o51a)"><path fill="#3bbfc0" d="M66.243 44.955H59.59V36.97h6.653V32.88l10.112 8.083-10.112 8.083zm2.66-2.661v1.23l3.194-2.56-3.193-2.562v1.23H62.25v2.662z"/></g><g clip-path="url(#7o51a)"><path fill="none" stroke="#3bbfc0" stroke-miterlimit="50" stroke-width=".6" d="M66.243 44.955H59.59V36.97h6.653V32.88l10.112 8.083-10.112 8.083zm2.66-2.661v1.23l3.194-2.56-3.193-2.562v1.23H62.25v2.662z"/></g><g clip-path="url(#7o51a)"><path fill="#3bbfc0" d="M15.682 49.046L5.57 40.963l10.112-8.083v4.091h6.653v7.984h-6.653zm-2.664-6.752h6.646v-2.661h-6.646v-1.231l-3.19 2.561 3.19 2.561z"/></g><g clip-path="url(#7o51a)"><path fill="none" stroke="#3bbfc0" stroke-miterlimit="50" stroke-width=".6" d="M15.682 49.046L5.57 40.963l10.112-8.083v4.091h6.653v7.984h-6.653zm-2.664-6.752h6.646v-2.661h-6.646v-1.231l-3.19 2.561 3.19 2.561z"/></g><g clip-path="url(#7o51a)"><path fill="#3bbfc0" d="M27.66 62.251h5.322V59.59H27.66z"/></g><g clip-path="url(#7o51a)"><path fill="none" stroke="#3bbfc0" stroke-miterlimit="50" stroke-width=".6" d="M27.66 62.251v0h5.322v0-2.661 0H27.66v0z"/></g><g clip-path="url(#7o51a)"><path fill="#3bbfc0" d="M35.64 62.251h18.628V59.59H35.64z"/></g><g clip-path="url(#7o51a)"><path fill="none" stroke="#3bbfc0" stroke-miterlimit="50" stroke-width=".6" d="M35.64 62.251v0h18.628v0-2.661 0H35.64v0z"/></g><g clip-path="url(#7o51a)"><path fill="#3bbfc0" d="M27.66 67.581h5.322V64.92H27.66z"/></g><g clip-path="url(#7o51a)"><path fill="none" stroke="#3bbfc0" stroke-miterlimit="50" stroke-width=".6" d="M27.66 67.581v0h5.322v0-2.661 0H27.66v0z"/></g><g clip-path="url(#7o51a)"><path fill="#3bbfc0" d="M35.64 67.581h18.628V64.92H35.64z"/></g><g clip-path="url(#7o51a)"><path fill="none" stroke="#3bbfc0" stroke-miterlimit="50" stroke-width=".6" d="M35.64 67.581v0h18.628v0-2.661 0H35.64v0z"/></g><g clip-path="url(#7o51a)"><path fill="#3bbfc0" d="M27.66 72.901h5.322V70.24H27.66z"/></g><g clip-path="url(#7o51a)"><path fill="none" stroke="#3bbfc0" stroke-miterlimit="50" stroke-width=".6" d="M27.66 72.901v0h5.322v0-2.661 0H27.66v0z"/></g><g clip-path="url(#7o51a)"><path fill="#3bbfc0" d="M35.64 72.901h18.628V70.24H35.64z"/></g><g clip-path="url(#7o51a)"><path fill="none" stroke="#3bbfc0" stroke-miterlimit="50" stroke-width=".6" d="M35.64 72.901v0h18.628v0-2.661 0H35.64v0z"/></g><g clip-path="url(#7o51a)"><path fill="#3bbfc0" d="M40.83 38.809c-2.23-.034-4.042-.815-5.373-2.329-2.944-3.31-2.445-8.981-2.395-9.53.183-4.108 2.146-6.037 3.742-6.952 1.597-.915 3.26-1.048 4.108-1.048h.133c1.547.033 2.928.4 4.109 1.081 1.58.915 3.509 2.86 3.692 6.919.05.549.532 6.22-2.395 9.53-1.33 1.497-3.144 2.295-5.372 2.329h-.25m-5.721-11.66c-.017.05-.532 5.257 1.88 7.968.964 1.081 2.245 1.614 3.924 1.63h.067c1.68-.016 2.96-.549 3.925-1.63 2.428-2.728 1.88-7.918 1.88-7.968v-.066c-.233-5.173-3.726-6.005-5.788-6.055h-.1c-1.663 0-5.539.582-5.788 6.055v.066"/></g><g clip-path="url(#7o51a)"><path fill="none" stroke="#3bbfc0" stroke-miterlimit="50" stroke-width=".6" d="M35.457 36.48c-2.944-3.31-2.445-8.981-2.395-9.53.183-4.108 2.146-6.037 3.742-6.952 1.597-.915 3.26-1.048 4.108-1.048h.133c1.547.033 2.928.4 4.109 1.081 1.58.915 3.509 2.86 3.692 6.919.05.549.532 6.22-2.395 9.53-1.33 1.497-3.144 2.295-5.372 2.329h-.25c-2.228-.034-4.041-.815-5.372-2.329zm1.53-1.363c.965 1.081 2.246 1.614 3.925 1.63h.067c1.68-.016 2.96-.549 3.925-1.63 2.428-2.728 1.88-7.918 1.88-7.968v-.066c-.233-5.173-3.726-6.005-5.788-6.055h-.1c-1.663 0-5.539.582-5.788 6.055v.066c-.017.05-.532 5.257 1.88 7.968z"/></g><g clip-path="url(#7o51a)"><path fill="#3bbfc0" d="M56.621 48.214v-.199c-.05-1.514-.15-5.04-3.46-6.17-.016 0-.05-.017-.082-.017-3.443-.882-6.304-2.861-6.32-2.878a1.02 1.02 0 0 0-1.43.25 1.02 1.02 0 0 0 .249 1.43c.133.1 3.16 2.196 6.952 3.177 1.78.632 1.98 2.528 2.03 4.274v.183c0 .682-.034 1.746-.167 2.362-1.231.698-6.07 3.127-13.44 3.127-7.334 0-12.207-2.429-13.454-3.127-.117-.615-.183-1.663-.167-2.362v-.183c.05-1.746.25-3.642 2.03-4.274 3.792-.981 6.835-3.094 6.952-3.177a1.02 1.02 0 0 0 .25-1.43 1.02 1.02 0 0 0-1.431-.25c-.033.017-2.877 2.013-6.32 2.878-.034 0-.05.016-.084.016-3.31 1.131-3.41 4.674-3.459 6.17v.2c0 .4-.017 2.429.382 3.46.084.2.217.366.4.482.233.15 5.705 3.643 14.885 3.643 9.181 0 14.653-3.493 14.886-3.643a1.03 1.03 0 0 0 .4-.482c.415-1.031.415-3.06.398-3.46"/></g><g clip-path="url(#7o51a)"><path fill="none" stroke="#3bbfc0" stroke-miterlimit="50" stroke-width=".6" d="M56.621 48.214v-.016 0-.183c-.05-1.514-.15-5.04-3.46-6.17-.016 0-.05-.017-.082-.017-3.443-.882-6.304-2.861-6.32-2.878a1.02 1.02 0 0 0-1.43.25 1.02 1.02 0 0 0 .249 1.43c.133.1 3.16 2.196 6.952 3.177 1.78.632 1.98 2.528 2.03 4.274v.183c0 .682-.034 1.746-.167 2.362-1.231.698-6.07 3.127-13.44 3.127-7.334 0-12.207-2.429-13.454-3.127-.117-.615-.183-1.663-.167-2.362v-.183c.05-1.746.25-3.642 2.03-4.274 3.792-.981 6.835-3.094 6.952-3.177a1.02 1.02 0 0 0 .25-1.43 1.02 1.02 0 0 0-1.431-.25c-.033.017-2.877 2.013-6.32 2.878-.034 0-.05.016-.084.016-3.31 1.131-3.41 4.674-3.459 6.17v.2c0 .4-.017 2.429.382 3.46.084.2.217.366.4.482.233.15 5.705 3.643 14.885 3.643 9.181 0 14.653-3.493 14.886-3.643a1.03 1.03 0 0 0 .4-.482c.415-1.031.415-3.06.398-3.46z"/></g></g></g></svg>