<svg xmlns="http://www.w3.org/2000/svg" width="82" height="82" viewBox="0 0 82 82"><g><g><g><path fill="#54bbbf" d="M78.223 47.62H3.71V7.703A3.992 3.992 0 0 1 7.703 3.71H74.23a3.992 3.992 0 0 1 3.992 3.992zm0 6.652a3.992 3.992 0 0 1-3.992 3.992H7.703a3.992 3.992 0 0 1-3.992-3.992v-3.991h74.512zM59.28 75.553a1.33 1.33 0 1 1 0 2.66H22.653a1.33 1.33 0 1 1 0-2.66h16.983a1.33 1.33 0 1 0 0-2.66h-9.05l2.176-11.968H49.17l2.179 11.968h-3.73a1.33 1.33 0 1 0 0 2.66zM74.23 1.05H7.704A6.653 6.653 0 0 0 1.05 7.703v46.57a6.653 6.653 0 0 0 6.653 6.652H30.06L27.882 72.9h-5.227a3.992 3.992 0 0 0 0 7.984h36.624a3.992 3.992 0 1 0 0-7.984h-5.223L51.88 60.925h22.352a6.653 6.653 0 0 0 6.653-6.653V7.702A6.653 6.653 0 0 0 74.23 1.05z"/><path fill="none" stroke="#54bbbf" stroke-miterlimit="50" stroke-width=".6" d="M78.223 47.62H3.71V7.703A3.992 3.992 0 0 1 7.703 3.71H74.23a3.992 3.992 0 0 1 3.992 3.992zm0 6.652a3.992 3.992 0 0 1-3.992 3.992H7.703a3.992 3.992 0 0 1-3.992-3.992v-3.991h74.512zM59.28 75.553a1.33 1.33 0 1 1 0 2.66H22.653a1.33 1.33 0 1 1 0-2.66h16.983a1.33 1.33 0 1 0 0-2.66h-9.05l2.176-11.968H49.17l2.179 11.968h-3.73a1.33 1.33 0 1 0 0 2.66zM74.23 1.05H7.704A6.653 6.653 0 0 0 1.05 7.703v46.57a6.653 6.653 0 0 0 6.653 6.652H30.06L27.882 72.9h-5.227a3.992 3.992 0 0 0 0 7.984h36.624a3.992 3.992 0 1 0 0-7.984h-5.223L51.88 60.925h22.352a6.653 6.653 0 0 0 6.653-6.653V7.702A6.653 6.653 0 0 0 74.23 1.05z"/></g><g><path fill="#54bbbf" d="M43.553 52.94H38.23a1.33 1.33 0 1 0 0 2.661h5.322a1.33 1.33 0 1 0 0-2.661z"/></g><g><path fill="#54bbbf" d="M19.216 16.397a.168.168 0 0 1-.159.16h-2.524v-.639h2.524a.168.168 0 0 1 .159.169zm-.629 2.19c0 .606-.494 1.098-1.102 1.099h-5.35a1.103 1.103 0 0 1-1.102-1.1V16.86h3.306v1.57h.315v-.314h.323v.314h.314v-.314h.315v.314h.315v-.314h.315v.314h.313v-1.57h2.047zm-.796 1.737h-.315V20h.323zm-5.5 0h-.313V20h.314zm-1.73-3.768a.167.167 0 0 1-.165-.159v-.318c0-.094.074-.17.166-.17h3.763v.639zm4.088-1.108h1.572v2.357h-1.572zm3.937-.942v1.108h-.325v-1.108zm-.953-.304h-.627v-.171c0-.09.07-.161.156-.161h1.415v.324zm-.313.472h-.314v-.168h.314zm.943-1.262a.163.163 0 0 1 .325 0v.172h-.325zm-5.51-.632a.16.16 0 0 1 .142.162.16.16 0 0 1-.141.162h-.936a.155.155 0 0 1-.149-.076.168.168 0 0 1 0-.172.155.155 0 0 1 .15-.076zm6.139 2.828v-2.2a.472.472 0 0 0-.943 0v.166h-.787a.47.47 0 0 0-.47.471v.93h.94v-.466h.315v1.1h-1.414v-.468h-2.199v.47h-3.301v-3.464a.166.166 0 0 1 .166-.156h.779a.156.156 0 0 1 .166.156v.315h-.324a.472.472 0 1 0 0 .943h.943a.472.472 0 0 0 0-.943h-.315v-.315a.472.472 0 0 0-.47-.467h-.787a.472.472 0 0 0-.472.467v3.461h-.157a.472.472 0 0 0-.472.473v.314c0 .26.212.47.472.47h.157v1.729c.002.598.38 1.13.943 1.33v.398a.314.314 0 0 0 .316.316h.314c.174 0 .314-.14.314-.314v-.315h4.558v.315c0 .173.14.314.314.314h.32c.175 0 .315-.14.315-.314v-.464c.481-.24.786-.73.787-1.266v-1.728h.156c.26 0 .472-.21.473-.47v-.315a.472.472 0 0 0-.481-.473z"/><path fill="none" stroke="#54bbbf" stroke-miterlimit="50" stroke-width=".6" d="M19.216 16.397a.168.168 0 0 1-.159.16h-2.524v-.639h2.524a.168.168 0 0 1 .159.169zm-.629 2.19c0 .606-.494 1.098-1.102 1.099h-5.35a1.103 1.103 0 0 1-1.102-1.1V16.86h3.306v1.57h.315v-.314h.323v.314h.314v-.314h.315v.314h.315v-.314h.315v.314h.313v-1.57h2.047zm-.796 1.737h-.315V20h.323zm-5.5 0h-.313V20h.314zm-1.73-3.768a.167.167 0 0 1-.165-.159v-.318c0-.094.074-.17.166-.17h3.763v.639zm4.088-1.108h1.572v2.357h-1.572zm3.937-.942v1.108h-.325v-1.108zm-.953-.304h-.627v-.171c0-.09.07-.161.156-.161h1.415v.324zm-.313.472h-.314v-.168h.314zm.943-1.262a.163.163 0 0 1 .325 0v.172h-.325zm-5.51-.632a.16.16 0 0 1 .142.162.16.16 0 0 1-.141.162h-.936a.155.155 0 0 1-.149-.076.168.168 0 0 1 0-.172.155.155 0 0 1 .15-.076zm6.139 2.828v-2.2a.472.472 0 0 0-.943 0v.166h-.787a.47.47 0 0 0-.47.471v.93h.94v-.466h.315v1.1h-1.414v-.468h-2.199v.47h-3.301v-3.464a.166.166 0 0 1 .166-.156h.779a.156.156 0 0 1 .166.156v.315h-.324a.472.472 0 1 0 0 .943h.943a.472.472 0 0 0 0-.943h-.315v-.315a.472.472 0 0 0-.47-.467h-.787a.472.472 0 0 0-.472.467v3.461h-.157a.472.472 0 0 0-.472.473v.314c0 .26.212.47.472.47h.157v1.729c.002.598.38 1.13.943 1.33v.398a.314.314 0 0 0 .316.316h.314c.174 0 .314-.14.314-.314v-.315h4.558v.315c0 .173.14.314.314.314h.32c.175 0 .315-.14.315-.314v-.464c.481-.24.786-.73.787-1.266v-1.728h.156c.26 0 .472-.21.473-.47v-.315a.472.472 0 0 0-.481-.473z"/></g><g><path fill="#54bbbf" d="M11.5 13.72h.314v.314H11.5z"/><path fill="none" stroke="#54bbbf" stroke-miterlimit="50" stroke-width=".6" d="M11.5 13.72v0h.314v.314H11.5v0z"/></g><g><path fill="#54bbbf" d="M12.13 13.72h.314v.314h-.314z"/><path fill="none" stroke="#54bbbf" stroke-miterlimit="50" stroke-width=".6" d="M12.13 13.72v0h.314v.314h-.314v0z"/></g><g><path fill="#54bbbf" d="M12.76 13.72h.314v.314h-.314z"/><path fill="none" stroke="#54bbbf" stroke-miterlimit="50" stroke-width=".6" d="M12.76 13.72v0h.314v.314h-.314v0z"/></g><g><path fill="#54bbbf" d="M11.5 14.98h.314v.314H11.5z"/><path fill="none" stroke="#54bbbf" stroke-miterlimit="50" stroke-width=".6" d="M11.5 14.98v0h.314v.314H11.5v0z"/></g><g><path fill="#54bbbf" d="M12.13 14.98h.314v.314h-.314z"/><path fill="none" stroke="#54bbbf" stroke-miterlimit="50" stroke-width=".6" d="M12.13 14.98v0h.314v.314h-.314v0z"/></g><g><path fill="#54bbbf" d="M12.76 14.98h.314v.314h-.314z"/><path fill="none" stroke="#54bbbf" stroke-miterlimit="50" stroke-width=".6" d="M12.76 14.98v0h.314v.314h-.314v0z"/></g><g><path fill="#54bbbf" d="M11.82 14.35h.314v.314h-.314z"/><path fill="none" stroke="#54bbbf" stroke-miterlimit="50" stroke-width=".6" d="M11.82 14.35v0h.314v.314h-.314v0z"/></g><g><path fill="#54bbbf" d="M12.45 14.35h.314v.314h-.314z"/><path fill="none" stroke="#54bbbf" stroke-miterlimit="50" stroke-width=".6" d="M12.45 14.35v0h.314v.314h-.314v0z"/></g><g><path fill="#54bbbf" d="M35.169 17.443a.333.333 0 0 1-.232.096.333.333 0 0 1-.23-.096l-.763-.767-.722-.72a.184.184 0 0 0-.26.26l1.489 1.496a.332.332 0 0 1 0 .461.334.334 0 0 1-.462 0L32.5 16.676a.185.185 0 0 0-.261.261l.721.72.766.767a.332.332 0 0 1-.46.461l-.767-.767a.192.192 0 0 0-.049-.033l-.218-.22a.185.185 0 0 0-.262.262l1.028 1.026a.332.332 0 0 1 0 .46.334.334 0 0 1-.461 0l-.392-.39a.693.693 0 0 0-.65-.942h-.026a.696.696 0 0 0-.695-.722h-.028a.693.693 0 0 0-.695-.721h-.026a.693.693 0 0 0-1.186-.52l-.325.32a.704.704 0 0 0-.104.131 2.465 2.465 0 0 1 .008-3.409 2.475 2.475 0 0 1 3.41-.15l-1.132 1.131a.79.79 0 0 0 .349 1.338.794.794 0 0 0 .772-.219l.5-.498h.651c.053 0 .106-.004.159-.01l2.037 2.032c.123.128.124.33.002.459zm-3.773 2.088a.33.33 0 0 1-.415-.044.34.34 0 0 1-.045-.42l.317-.321a.33.33 0 0 1 .418.043.34.34 0 0 1 .042.423zm-1.177-.73a.321.321 0 0 1 0-.46l.319-.318a.337.337 0 0 1 .233-.094c.13.006.244.086.293.205a.33.33 0 0 1-.061.35l-.326.316a.338.338 0 0 1-.463 0zm-.817-.957c0-.086.035-.168.097-.229l.324-.313a.334.334 0 0 1 .468 0 .322.322 0 0 1 0 .456l-.324.313a.347.347 0 0 1-.468 0 .315.315 0 0 1-.097-.227zm.092.227l.005.005a.322.322 0 0 1-.005-.005zm-.492-.616a.33.33 0 0 1-.24-.095.323.323 0 0 1-.096-.238c0-.086.034-.169.096-.23l.32-.317a.338.338 0 0 1 .423.043.33.33 0 0 1 .043.418l-.32.317a.327.327 0 0 1-.223.102zm7.428-3.776a.185.185 0 1 0-.321.181 2.475 2.475 0 0 1-.401 2.966l-.14.14a.68.68 0 0 0-.166-.243L33.52 14.83a1.28 1.28 0 0 0 .332-.243l.363-.362a.186.186 0 0 0 0-.261.183.183 0 0 0-.26 0l-.354.362a.893.893 0 0 1-.638.265h-.726a.185.185 0 0 0-.133.051l-.555.556a.424.424 0 0 1-.599-.6l1.27-1.266a2.48 2.48 0 0 1 2.941-.416.184.184 0 0 0 .178-.321 2.827 2.827 0 0 0-3.248.353 2.836 2.836 0 0 0-3.883 4.13l.068.07a.312.312 0 0 0 .04.03.694.694 0 0 0 .692.64h.028v.028c0 .383.31.693.693.693h.029v.027a.694.694 0 0 0 .683.7h.028a.694.694 0 0 0 1.185.519l.256-.258.347.348a.694.694 0 0 0 1.185-.526h.035a.694.694 0 0 0 .693-.722h.027a.694.694 0 0 0 .693-.722h.029a.69.69 0 0 0 .642-.429.186.186 0 0 0 .048-.035l.357-.357a2.84 2.84 0 0 0 .463-3.405z"/><path fill="none" stroke="#54bbbf" stroke-miterlimit="50" stroke-width=".6" d="M35.169 17.443a.333.333 0 0 1-.232.096.333.333 0 0 1-.23-.096l-.763-.767-.722-.72a.184.184 0 0 0-.26.26l1.489 1.496a.332.332 0 0 1 0 .461.334.334 0 0 1-.462 0L32.5 16.676a.185.185 0 0 0-.261.261l.721.72.766.767a.332.332 0 0 1-.46.461l-.767-.767a.192.192 0 0 0-.049-.033l-.218-.22a.185.185 0 0 0-.262.262l1.028 1.026a.332.332 0 0 1 0 .46.334.334 0 0 1-.461 0l-.392-.39a.693.693 0 0 0-.65-.942h-.026a.696.696 0 0 0-.695-.722h-.028a.693.693 0 0 0-.695-.721h-.026a.693.693 0 0 0-1.186-.52l-.325.32a.704.704 0 0 0-.104.131 2.465 2.465 0 0 1 .008-3.409 2.475 2.475 0 0 1 3.41-.15l-1.132 1.131a.79.79 0 0 0 .349 1.338.794.794 0 0 0 .772-.219l.5-.498h.651c.053 0 .106-.004.159-.01l2.037 2.032c.123.128.124.33.002.459zm-3.773 2.088a.33.33 0 0 1-.415-.044.34.34 0 0 1-.045-.42l.317-.321a.33.33 0 0 1 .418.043.34.34 0 0 1 .042.423zm-1.177-.73a.321.321 0 0 1 0-.46l.319-.318a.337.337 0 0 1 .233-.094c.13.006.244.086.293.205a.33.33 0 0 1-.061.35l-.326.316a.338.338 0 0 1-.463 0zm-.817-.957c0-.086.035-.168.097-.229l.324-.313a.334.334 0 0 1 .468 0 .322.322 0 0 1 0 .456l-.324.313a.347.347 0 0 1-.468 0 .315.315 0 0 1-.097-.227zm.092.227l.005.005a.322.322 0 0 1-.005-.005zm-.492-.616a.33.33 0 0 1-.24-.095.323.323 0 0 1-.096-.238c0-.086.034-.169.096-.23l.32-.317a.338.338 0 0 1 .423.043.33.33 0 0 1 .043.418l-.32.317a.327.327 0 0 1-.223.102zm7.428-3.776a.185.185 0 1 0-.321.181 2.475 2.475 0 0 1-.401 2.966l-.14.14a.68.68 0 0 0-.166-.243L33.52 14.83a1.28 1.28 0 0 0 .332-.243l.363-.362a.186.186 0 0 0 0-.261.183.183 0 0 0-.26 0l-.354.362a.893.893 0 0 1-.638.265h-.726a.185.185 0 0 0-.133.051l-.555.556a.424.424 0 0 1-.599-.6l1.27-1.266a2.48 2.48 0 0 1 2.941-.416.184.184 0 0 0 .178-.321 2.827 2.827 0 0 0-3.248.353 2.836 2.836 0 0 0-3.883 4.13l.068.07a.312.312 0 0 0 .04.03.694.694 0 0 0 .692.64h.028v.028c0 .383.31.693.693.693h.029v.027a.694.694 0 0 0 .683.7h.028a.694.694 0 0 0 1.185.519l.256-.258.347.348a.694.694 0 0 0 1.185-.526h.035a.694.694 0 0 0 .693-.722h.027a.694.694 0 0 0 .693-.722h.029a.69.69 0 0 0 .642-.429.186.186 0 0 0 .048-.035l.357-.357a2.84 2.84 0 0 0 .463-3.405z"/></g><g><g><g><g><path fill="#54bbbf" d="M51.609 13.92a.141.141 0 0 0 .066-.185.747.747 0 0 0-1.016-.352 1.074 1.074 0 0 0-1.359-.404.138.138 0 1 0 .117.25.79.79 0 0 1 1.014.333.753.753 0 0 0-.12.815.138.138 0 1 0 .25-.116.476.476 0 1 1 .863-.401c.032.07.115.1.185.068"/></g><g><path fill="none" stroke="#54bbbf" stroke-miterlimit="50" d="M51.609 13.92a.141.141 0 0 0 .066-.185.747.747 0 0 0-1.016-.352 1.074 1.074 0 0 0-1.359-.404.138.138 0 1 0 .117.25.79.79 0 0 1 1.014.333.753.753 0 0 0-.12.815.138.138 0 1 0 .25-.116.476.476 0 1 1 .863-.401.14.14 0 0 0 .185.06z"/></g><g><path fill="#54bbbf" d="M47.87 14.411a.138.138 0 0 0 .116-.251.832.832 0 0 0-1.102.387 1.068 1.068 0 0 0-.764.049.138.138 0 1 0 .117.25.802.802 0 0 1 1.06.388.138.138 0 1 0 .25-.116c-.088-.19-.23-.35-.409-.46a.559.559 0 0 1 .732-.247"/></g><g><path fill="none" stroke="#54bbbf" stroke-miterlimit="50" d="M47.87 14.411a.138.138 0 0 0 .116-.251.832.832 0 0 0-1.102.387 1.068 1.068 0 0 0-.764.049.138.138 0 1 0 .117.25.802.802 0 0 1 1.06.388.138.138 0 1 0 .25-.116c-.088-.19-.23-.35-.409-.46a.559.559 0 0 1 .732-.247z"/></g><g><path fill="#54bbbf" d="M50.267 15.56a.138.138 0 1 0 .161.224.572.572 0 0 1 .797.131.138.138 0 0 0 .225-.161.846.846 0 0 0-1.183-.195"/></g><g><path fill="none" stroke="#54bbbf" stroke-miterlimit="50" d="M50.267 15.56a.138.138 0 1 0 .161.224.572.572 0 0 1 .797.131.138.138 0 0 0 .225-.161.846.846 0 0 0-1.183-.195z"/></g><g><path fill="#54bbbf" d="M49.116 14.855a.569.569 0 0 1-.655.47.138.138 0 1 0-.045.273.847.847 0 0 0 .971-.699.136.136 0 0 0-.113-.166.138.138 0 0 0-.166.113"/></g><g><path fill="none" stroke="#54bbbf" stroke-miterlimit="50" d="M49.116 14.853a.569.569 0 0 1-.655.47.138.138 0 1 0-.045.273.847.847 0 0 0 .971-.699.136.136 0 0 0-.113-.165.138.138 0 0 0-.158.121z"/></g><g><path fill="#54bbbf" d="M53.555 14.674a1.061 1.061 0 0 0-.649-1.091.865.865 0 0 0-.108-.491.14.14 0 0 0-.188-.055.136.136 0 0 0-.055.186.557.557 0 0 1 .06.415.138.138 0 0 0 .1.166c.386.106.627.49.554.885a.138.138 0 0 0 .06.153c.246.156.332.579.141.92a1.307 1.307 0 0 0-.347-.473.139.139 0 1 0-.182.21c.176.147.296.35.341.575v.02c.167.5-.332 1.12-.765.925h-.026a.597.597 0 0 0-.318-.1h-.682a.138.138 0 1 0 0 .276h.682a.343.343 0 0 1 .333.43l-.05.269a.609.609 0 0 1-.59.455h-.876a.61.61 0 0 1-.59-.455l-.05-.27a.344.344 0 0 1 .333-.429h.21a.138.138 0 0 0 0-.276h-.215a.62.62 0 0 0-.602.768l.051.272c.1.391.454.665.858.665h.79l.361 1.663a.254.254 0 1 1-.499.092c-.078-.5-.54-.962-1.545-1.54-.68-.391-.885-.957-.803-1.443.253.115.21.235.34.235a.138.138 0 0 0 .112-.218.82.82 0 0 0-.459-.308c-.013-.013-.021-.031-.04-.038a.14.14 0 0 0-.106 0 .832.832 0 0 0-.576.146.138.138 0 1 0 .162.225.554.554 0 0 1 .296-.096c-.02.132-.022.267-.009.4-1.064.208-1.703-.094-2.107-1.01a1.144 1.144 0 0 1-.033-.458.139.139 0 0 0-.265-.085 1.111 1.111 0 0 0 0 .474.499.499 0 0 1-.498-.218.135.135 0 0 0-.08-.08c-.078-.03-.113.015-.192.038-.394.11-.785-.407-.665-.884.033-.142-.136-.142-.228-.466-.091-.324.044-.69.31-.765a.138.138 0 0 0 .091-.183c-.166-.426.12-.961.5-.976a.14.14 0 0 0 .132-.127c.037-.422.474-.778.832-.665a.14.14 0 0 0 .156-.062.788.788 0 0 1 .882-.332.612.612 0 0 0-.105.292c-.03 0-.062.01-.087.019a.926.926 0 0 0-.346.206.136.136 0 0 0 0 .195.136.136 0 0 0 .195 0 .516.516 0 0 1 .743 0 .136.136 0 0 0 .224-.046.138.138 0 0 0-.03-.15.802.802 0 0 0-.42-.233.58.58 0 0 1 .138-.233c.346-.375.905-.333 1.111-.045a.138.138 0 0 0 .206.023c.32-.29.934-.2 1.112.166.03.062.1.092.166.072a.773.773 0 0 1 .906.499.14.14 0 0 0 .148.103c.12-.011.24.009.35.058a.136.136 0 0 0 .18-.07.138.138 0 0 0-.069-.183.988.988 0 0 0-.378-.084 1.06 1.06 0 0 0-1.104-.613 1.046 1.046 0 0 0-1.379-.244c-.354-.333-.998-.308-1.37.047a1.054 1.054 0 0 0-1.25.322c-.463-.063-.96.313-1.07.832-.474.101-.797.677-.674 1.207-.47.25-.552.988-.166 1.454-.107.674.465 1.307 1.04 1.138a.87.87 0 0 0 .764.274c.49 1.016 1.281 1.282 2.364 1.074.145.46.468.84.898 1.058.911.526 1.345.94 1.407 1.342a.53.53 0 1 0 1.041-.192l-.33-1.63a.877.877 0 0 0 .664-.646c.027-.238.12-.35.012-.628.559-.047.958-.666.832-1.23.374-.399.38-1.09-.014-1.423"/></g><g><path fill="none" stroke="#54bbbf" stroke-miterlimit="50" d="M53.555 14.674a1.061 1.061 0 0 0-.649-1.091.865.865 0 0 0-.108-.491.14.14 0 0 0-.188-.055.136.136 0 0 0-.055.186.557.557 0 0 1 .06.415.138.138 0 0 0 .1.166c.386.106.627.49.554.885a.138.138 0 0 0 .06.153c.246.156.332.579.141.92a1.307 1.307 0 0 0-.347-.473.139.139 0 1 0-.182.21c.176.147.296.35.341.575v.02c.167.5-.332 1.12-.765.925h-.026a.597.597 0 0 0-.318-.1h-.682a.138.138 0 1 0 0 .276h.682a.343.343 0 0 1 .333.43l-.05.269a.609.609 0 0 1-.59.455h-.876a.61.61 0 0 1-.59-.455l-.05-.27a.344.344 0 0 1 .333-.429h.21a.138.138 0 0 0 0-.276h-.215a.62.62 0 0 0-.602.768l.051.272c.1.391.454.665.858.665h.79v0l.361 1.663a.254.254 0 1 1-.499.092c-.078-.5-.54-.962-1.545-1.54-.68-.391-.885-.957-.803-1.443.253.115.21.235.34.235a.138.138 0 0 0 .112-.218.82.82 0 0 0-.459-.308c-.013-.013-.021-.031-.04-.038a.14.14 0 0 0-.106 0 .832.832 0 0 0-.576.146.138.138 0 1 0 .162.225.554.554 0 0 1 .296-.096c-.02.132-.022.267-.009.4-1.064.208-1.703-.094-2.107-1.01a1.144 1.144 0 0 1-.033-.458.139.139 0 0 0-.265-.085 1.111 1.111 0 0 0 0 .474.499.499 0 0 1-.498-.218.135.135 0 0 0-.08-.08c-.078-.03-.113.015-.192.038-.394.11-.785-.407-.665-.884.033-.142-.136-.142-.228-.466-.091-.324.044-.69.31-.765a.138.138 0 0 0 .091-.183c-.166-.426.12-.961.5-.976a.14.14 0 0 0 .132-.127c.037-.422.474-.778.832-.665a.14.14 0 0 0 .156-.062.788.788 0 0 1 .882-.332.612.612 0 0 0-.105.292c-.03 0-.062.01-.087.019a.926.926 0 0 0-.346.206.136.136 0 0 0 0 .195.136.136 0 0 0 .195 0 .516.516 0 0 1 .743 0 .136.136 0 0 0 .224-.046.138.138 0 0 0-.03-.15.802.802 0 0 0-.42-.233.58.58 0 0 1 .138-.233v0c.346-.375.905-.333 1.111-.045a.138.138 0 0 0 .206.023c.32-.29.934-.2 1.112.166.03.062.1.092.166.072a.773.773 0 0 1 .906.499.14.14 0 0 0 .148.103c.12-.011.24.009.35.058a.136.136 0 0 0 .18-.07.138.138 0 0 0-.069-.183.988.988 0 0 0-.378-.084 1.06 1.06 0 0 0-1.104-.613 1.046 1.046 0 0 0-1.379-.244c-.354-.333-.998-.308-1.37.047a1.054 1.054 0 0 0-1.25.322c-.463-.063-.96.313-1.07.832-.474.101-.797.677-.674 1.207-.47.25-.552.988-.166 1.454-.107.674.465 1.307 1.04 1.138a.87.87 0 0 0 .764.274c.49 1.016 1.281 1.282 2.364 1.074.145.46.468.84.898 1.058.911.526 1.345.94 1.407 1.342a.53.53 0 1 0 1.041-.192l-.33-1.63a.877.877 0 0 0 .664-.646c.027-.238.12-.35.012-.628.559-.047.958-.666.832-1.23.374-.399.38-1.09-.012-1.423z"/></g></g></g></g><g><g><g><g><path fill="#54bbbf" d="M71.11 17.987a.546.546 0 0 1 .62.2.585.585 0 0 1-.151.828l-2.616 1.676c-.18.111-.388.169-.6.167h-3.668c-.37.02-.735-.084-1.04-.293a.344.344 0 0 1-.262.125h-1.35a.333.333 0 0 1-.333-.333V17.99c0-.183.149-.332.333-.332h1.344a.333.333 0 0 1 .279.146c.559-.484 1.424-.484 1.467-.484h.085c.33.002.65.12.904.333.192.163.436.253.687.254h.729c.31.002.594.168.747.438l.013.023a.722.722 0 0 1 .065.547h.05c.04 0 .078-.006.116-.018l2.581-.907zm-7.717 2.367v-2.357h-1.35v2.357zm8.102-1.773a.26.26 0 0 0-.04-.195.208.208 0 0 0-.236-.076l-2.58.904a.649.649 0 0 1-.231.039h-1.243a1.044 1.044 0 0 0-.598.193l-.102.07a.166.166 0 0 1-.166.014.166.166 0 0 1-.097-.138.166.166 0 0 1 .072-.153l.1-.071c.232-.163.509-.251.793-.253h.832a.37.37 0 0 0 .008-.38l-.013-.026a.514.514 0 0 0-.451-.264h-.729a1.417 1.417 0 0 1-.904-.333 1.076 1.076 0 0 0-.687-.253h-.085c-.01 0-.995.01-1.407.572V20.2c.066.078.317.333.963.333h3.669c.149 0 .295-.043.42-.123l2.613-1.675a.228.228 0 0 0 .1-.153z"/><path fill="none" stroke="#54bbbf" stroke-miterlimit="50" d="M71.11 17.987a.546.546 0 0 1 .62.2.585.585 0 0 1-.151.828l-2.616 1.676c-.18.111-.388.169-.6.167h-3.668c-.37.02-.735-.084-1.04-.293a.344.344 0 0 1-.262.125h-1.35a.333.333 0 0 1-.333-.333V17.99c0-.183.149-.332.333-.332h1.344a.333.333 0 0 1 .279.146c.559-.484 1.424-.484 1.467-.484h.085c.33.002.65.12.904.333.192.163.436.253.687.254h.729c.31.002.594.168.747.438l.013.023a.722.722 0 0 1 .065.547h.05c.04 0 .078-.006.116-.018l2.581-.907zm-7.717 2.367v-2.357h-1.35v2.357zm8.102-1.773a.26.26 0 0 0-.04-.195.208.208 0 0 0-.236-.076l-2.58.904a.649.649 0 0 1-.231.039h-1.243a1.044 1.044 0 0 0-.598.193l-.102.07a.166.166 0 0 1-.166.014.166.166 0 0 1-.097-.138.166.166 0 0 1 .072-.153l.1-.071c.232-.163.509-.251.793-.253h.832a.37.37 0 0 0 .008-.38l-.013-.026a.514.514 0 0 0-.451-.264h-.729a1.417 1.417 0 0 1-.904-.333 1.076 1.076 0 0 0-.687-.253h-.085c-.01 0-.995.01-1.407.572V20.2c.066.078.317.333.963.333h3.669c.149 0 .295-.043.42-.123l2.613-1.675a.228.228 0 0 0 .1-.153z"/></g><g><path fill="#54bbbf" d="M71.11 17.99a.546.546 0 0 1 .62.197.585.585 0 0 1-.151.828l-2.616 1.676c-.18.111-.388.169-.6.167h-3.668c-.37.02-.735-.084-1.04-.293a.344.344 0 0 1-.262.125h-1.35a.333.333 0 0 1-.333-.333V17.99c0-.183.149-.332.333-.332h1.344a.333.333 0 0 1 .279.146c.559-.484 1.424-.484 1.467-.484h.085c.33.002.65.12.904.333.192.163.436.253.687.254h.729c.31.002.594.168.747.438l.013.023a.722.722 0 0 1 .065.547h.05c.04 0 .078-.006.116-.018zm-7.717 2.364v-2.357h-1.35v2.357zm8.103-1.773a.26.26 0 0 0-.041-.195.208.208 0 0 0-.236-.076l-2.58.904a.649.649 0 0 1-.231.039h-1.243a1.044 1.044 0 0 0-.598.193l-.102.07a.166.166 0 0 1-.166.014.166.166 0 0 1-.097-.138.166.166 0 0 1 .072-.153l.1-.071c.232-.163.509-.251.793-.253h.832a.37.37 0 0 0 .008-.38l-.013-.026a.514.514 0 0 0-.451-.264h-.729a1.417 1.417 0 0 1-.904-.333 1.076 1.076 0 0 0-.687-.253h-.085c-.01 0-.995.01-1.407.572V20.2c.066.078.317.333.963.333h3.669c.149 0 .295-.043.42-.123l2.613-1.675a.228.228 0 0 0 .1-.153z"/><path fill="none" stroke="#54bbbf" stroke-miterlimit="50" stroke-width=".6" d="M71.11 17.99a.546.546 0 0 1 .62.197.585.585 0 0 1-.151.828l-2.616 1.676c-.18.111-.388.169-.6.167h-3.668c-.37.02-.735-.084-1.04-.293a.344.344 0 0 1-.262.125h-1.35a.333.333 0 0 1-.333-.333V17.99c0-.183.149-.332.333-.332h1.344a.333.333 0 0 1 .279.146c.559-.484 1.424-.484 1.467-.484h.085c.33.002.65.12.904.333.192.163.436.253.687.254h.729c.31.002.594.168.747.438l.013.023a.722.722 0 0 1 .065.547h.05c.04 0 .078-.006.116-.018zm-7.717 2.364v-2.357h-1.35v2.357zm8.103-1.773a.26.26 0 0 0-.041-.195.208.208 0 0 0-.236-.076l-2.58.904a.649.649 0 0 1-.231.039h-1.243a1.044 1.044 0 0 0-.598.193l-.102.07a.166.166 0 0 1-.166.014.166.166 0 0 1-.097-.138.166.166 0 0 1 .072-.153l.1-.071c.232-.163.509-.251.793-.253h.832a.37.37 0 0 0 .008-.38l-.013-.026a.514.514 0 0 0-.451-.264h-.729a1.417 1.417 0 0 1-.904-.333 1.076 1.076 0 0 0-.687-.253h-.085c-.01 0-.995.01-1.407.572V20.2c.066.078.317.333.963.333h3.669c.149 0 .295-.043.42-.123l2.613-1.675a.228.228 0 0 0 .1-.153z"/></g><g><path fill="#54bbbf" d="M62.542 19.857a.185.185 0 0 0 .12-.05.191.191 0 0 0 .034-.055.166.166 0 0 0 .014-.065.18.18 0 0 0-.049-.12.176.176 0 0 0-.24 0 .166.166 0 0 0-.037.185c.026.067.093.11.166.105"/><path fill="none" stroke="#54bbbf" stroke-miterlimit="50" d="M62.542 19.857a.185.185 0 0 0 .12-.05.191.191 0 0 0 .034-.055.166.166 0 0 0 .014-.065.18.18 0 0 0-.049-.12.176.176 0 0 0-.24 0 .166.166 0 0 0-.037.185c.026.067.093.11.166.105"/></g><g><path fill="#54bbbf" d="M67.276 15.437a1.41 1.41 0 0 1-1.08-.47c-.593-.666-.495-1.807-.483-1.917.038-.825.43-1.216.754-1.399a1.71 1.71 0 0 1 .831-.211h.027c.29 0 .577.075.831.216.32.183.707.576.745 1.394.017.11.11 1.252-.482 1.918a1.417 1.417 0 0 1-1.093.465h-.048m-1.154-2.348c-.002.01-.107 1.058.38 1.605.201.223.491.345.79.333h.016c.3.012.59-.11.791-.333.488-.55.38-1.593.38-1.605v-.012c-.045-1.04-.75-1.219-1.165-1.219h-.018c-.333 0-1.113.118-1.164 1.22v.01"/><path fill="none" stroke="#54bbbf" stroke-miterlimit="50" d="M67.276 15.437a1.41 1.41 0 0 1-1.08-.47c-.593-.666-.495-1.807-.483-1.917.038-.825.43-1.216.754-1.399a1.71 1.71 0 0 1 .831-.211h.027c.29 0 .577.075.831.216.32.183.707.576.745 1.394.017.11.11 1.252-.482 1.918a1.417 1.417 0 0 1-1.093.465h-.048m-1.154-2.348c-.002.01-.107 1.058.38 1.605.201.223.491.345.79.333h.016c.3.012.59-.11.791-.333.488-.55.38-1.593.38-1.605v-.012c-.045-1.04-.75-1.219-1.165-1.219h-.018c-.333 0-1.113.118-1.164 1.22v.01"/></g><g><path fill="#54bbbf" d="M67.288 15.433a1.41 1.41 0 0 1-1.093-.465c-.592-.667-.494-1.808-.482-1.918.038-.825.43-1.216.754-1.399a1.71 1.71 0 0 1 .831-.211h.027c.29 0 .577.075.831.216.32.183.707.576.745 1.394.017.11.11 1.252-.482 1.918a1.417 1.417 0 0 1-1.083.465zm-.783-.744c.2.223.49.345.79.333h.015c.3.012.59-.11.791-.333.488-.55.38-1.592.38-1.604v-.011c-.045-1.041-.75-1.219-1.165-1.219h-.018c-.333 0-1.113.118-1.164 1.219v.011c-.002.01-.105 1.05.37 1.604z"/><path fill="none" stroke="#54bbbf" stroke-miterlimit="50" stroke-width=".6" d="M67.288 15.433a1.41 1.41 0 0 1-1.093-.465c-.592-.667-.494-1.808-.482-1.918.038-.825.43-1.216.754-1.399a1.71 1.71 0 0 1 .831-.211h.027c.29 0 .577.075.831.216.32.183.707.576.745 1.394.017.11.11 1.252-.482 1.918a1.417 1.417 0 0 1-1.083.465zm-.783-.744c.2.223.49.345.79.333h.015c.3.012.59-.11.791-.333.488-.55.38-1.592.38-1.604v-.011c-.045-1.041-.75-1.219-1.165-1.219h-.018c-.333 0-1.113.118-1.164 1.219v.011c-.002.01-.105 1.05.37 1.604z"/></g><g><path fill="#54bbbf" d="M70.467 17.329v-.04c-.01-.303-.03-1.015-.695-1.242h-.017a4.524 4.524 0 0 1-1.276-.58.206.206 0 0 0-.287.05.208.208 0 0 0 .05.29c.43.288.903.504 1.402.64.357.127.397.51.409.86a2.906 2.906 0 0 1-.033.512 6.127 6.127 0 0 1-5.418 0 2.736 2.736 0 0 1-.031-.473v-.039c.01-.35.05-.733.409-.86.5-.139.974-.357 1.405-.647a.208.208 0 0 0-.237-.332c-.392.26-.823.455-1.276.58h-.015c-.665.228-.687.94-.695 1.241a2.355 2.355 0 0 0 .078.737c.015.04.043.074.08.096.045.03 1.149.734 2.993.734 1.845 0 2.953-.705 2.994-.734a.216.216 0 0 0 .08-.096 2.48 2.48 0 0 0 .073-.695"/><path fill="none" stroke="#54bbbf" stroke-miterlimit="50" d="M70.467 17.329v-.04c-.01-.303-.03-1.015-.695-1.242h-.017a4.524 4.524 0 0 1-1.276-.58.206.206 0 0 0-.287.05.208.208 0 0 0 .05.29c.43.288.903.504 1.402.64.357.127.397.51.409.86a2.906 2.906 0 0 1-.033.512 6.127 6.127 0 0 1-5.418 0 2.736 2.736 0 0 1-.031-.473v-.039c.01-.35.05-.733.409-.86.5-.139.974-.357 1.405-.647a.208.208 0 0 0-.237-.332c-.392.26-.823.455-1.276.58h-.015c-.665.228-.687.94-.695 1.241a.31.31 0 0 1 0 .04v0c-.01.235.017.47.078.697.015.04.043.074.08.096.045.03 1.149.734 2.993.734 1.845 0 2.953-.705 2.994-.734a.216.216 0 0 0 .08-.096 2.48 2.48 0 0 0 .073-.695"/></g><g><path fill="#54bbbf" d="M70.467 17.329v-.04c-.01-.303-.03-1.015-.695-1.242h-.017a4.524 4.524 0 0 1-1.276-.58.206.206 0 0 0-.287.05.208.208 0 0 0 .05.29c.43.288.903.504 1.402.64.357.127.397.51.409.86a2.906 2.906 0 0 1-.033.512 6.127 6.127 0 0 1-5.418 0 2.736 2.736 0 0 1-.031-.473v-.039c.01-.35.05-.733.409-.86.5-.139.974-.357 1.405-.647a.208.208 0 0 0-.237-.332c-.392.26-.823.455-1.276.58h-.015c-.665.228-.687.94-.695 1.241a2.355 2.355 0 0 0 .078.737c.015.04.043.074.08.096.045.03 1.149.734 2.993.734 1.845 0 2.953-.705 2.994-.734a.216.216 0 0 0 .08-.096 2.48 2.48 0 0 0 .08-.697z"/><path fill="none" stroke="#54bbbf" stroke-miterlimit="50" stroke-width=".6" d="M70.467 17.329v-.04c-.01-.303-.03-1.015-.695-1.242h-.017a4.524 4.524 0 0 1-1.276-.58.206.206 0 0 0-.287.05.208.208 0 0 0 .05.29c.43.288.903.504 1.402.64.357.127.397.51.409.86a2.906 2.906 0 0 1-.033.512 6.127 6.127 0 0 1-5.418 0 2.736 2.736 0 0 1-.031-.473v-.039c.01-.35.05-.733.409-.86.5-.139.974-.357 1.405-.647a.208.208 0 0 0-.237-.332c-.392.26-.823.455-1.276.58h-.015c-.665.228-.687.94-.695 1.241a.31.31 0 0 1 0 .04v0c-.01.235.017.47.078.697.015.04.043.074.08.096.045.03 1.149.734 2.993.734 1.845 0 2.953-.705 2.994-.734a.216.216 0 0 0 .08-.096 2.48 2.48 0 0 0 .08-.697z"/></g><g><path fill="#fff" d="M64.008 18.016c.38-.316 1.176-.316 1.176-.316l1.18.547s1.26.03 1.45.098c.217.078.264.57.177.572-.145 0-2.618-.055-2.618-.055s-1.673-.59-1.365-.846"/></g></g></g></g><g><g><g><g><path fill="#f063a0" d="M43.524 37.583a.788.788 0 0 1-.086 1.089l-.567.499a.78.78 0 0 1-.524.2.538.538 0 0 1-.073 0 .795.795 0 0 1-.55-.303l-1.473-1.91-1.482 1.915a.795.795 0 0 1-.55.303h-.073a.787.787 0 0 1-.524-.2l-.568-.499a.79.79 0 0 1-.086-1.09l1.858-2.266-1.23-1.592a.21.21 0 0 1-.011-.02c-.557-.968.695-3.113.84-3.355a.167.167 0 0 1 .057-.053l.024-.015a4.657 4.657 0 0 1 3.475 0 .18.18 0 0 1 .03.018.088.088 0 0 1 .016.01.166.166 0 0 1 .035.042c.145.241 1.397 2.387.84 3.355a.21.21 0 0 1-.011.02l-1.23 1.591 1.855 2.266zm-3.273-4.002l.853-1.053a2.58 2.58 0 0 0-1.724 0zm2.367-.05c.296-.544-.171-1.721-.56-2.495a3.63 3.63 0 0 1-.68 1.682l-.919 1.124.985 1.204 1.174-1.52zm-.873-2.989a4.324 4.324 0 0 0-2.994 0l.055.666v.023c.006.033.015.068.023.101l.02.075.023.083.029.088.02.062c.013.038.026.077.041.111l.01.029c.062.156.136.308.22.454a2.916 2.916 0 0 1 2.107 0c.083-.143.155-.292.216-.446.005-.013.017-.028.017-.043l.035-.095c.008-.025.02-.053.026-.077l.022-.073c.01-.031.028-.065.028-.098l.015-.058c.01-.038.02-.078.028-.116v-.019l.055-.665zm-1.715 6.344l-.649-.842-.349-.452-1.811 2.207a.452.452 0 0 0 .05.625l.567.5a.452.452 0 0 0 .665-.064zm3.167 1.522a.452.452 0 0 0 .05-.626l-1.938-2.368-1.204-1.474-.998-1.23a3.61 3.61 0 0 1-.68-1.68c-.393.778-.855 1.956-.56 2.494l1.303 1.687 1.206 1.563 1.605 2.081c.076.1.19.164.316.175a.45.45 0 0 0 .344-.112l.566-.499z"/></g><g><path fill="#54bbbf" d="M43.516 37.588a.788.788 0 0 1-.078 1.084l-.567.499a.78.78 0 0 1-.524.2.538.538 0 0 1-.073 0 .795.795 0 0 1-.55-.303l-1.473-1.91-1.482 1.915a.795.795 0 0 1-.55.303h-.073a.787.787 0 0 1-.524-.2l-.568-.499a.79.79 0 0 1-.086-1.09l1.858-2.266-1.23-1.592a.21.21 0 0 1-.011-.02c-.557-.968.695-3.113.84-3.355a.167.167 0 0 1 .057-.053l.024-.015a4.657 4.657 0 0 1 3.475 0 .18.18 0 0 1 .03.018.088.088 0 0 1 .016.01.166.166 0 0 1 .035.042c.145.241 1.397 2.387.84 3.355a.21.21 0 0 1-.011.02l-1.23 1.591zm-3.265-4.007l.853-1.053a2.58 2.58 0 0 0-1.724 0zm2.367-.05c.294-.539-.171-1.716-.56-2.495a3.63 3.63 0 0 1-.68 1.682l-.919 1.124.985 1.204 1.174-1.52zm-.877-2.988v.002l.007.003zm0 .002a4.345 4.345 0 0 0-2.99-.004l.055.662v.023c.006.033.015.068.023.1l.02.075.023.083.029.088.02.061c.013.038.026.076.041.11l.01.03c.062.155.136.306.22.45a2.93 2.93 0 0 1 2.107 0c.083-.141.155-.29.216-.443.005-.013.017-.028.017-.043l.035-.094c.008-.025.02-.053.026-.076l.022-.073c.01-.031.028-.064.028-.098l.015-.057.029-.116v-.019zm-1.711 6.34l-.649-.84-.349-.453-1.811 2.207a.452.452 0 0 0 .05.625l.567.5a.452.452 0 0 0 .665-.064zm3.217.897l-1.938-2.368-1.204-1.474-.998-1.23a3.61 3.61 0 0 1-.68-1.68c-.393.778-.855 1.956-.56 2.494l1.303 1.687 1.206 1.563 1.605 2.081c.076.1.19.164.316.175a.45.45 0 0 0 .344-.112l.566-.499a.452.452 0 0 0 .04-.637z"/><path fill="none" stroke="#54bbbf" stroke-miterlimit="50" stroke-width=".6" d="M43.516 37.588a.788.788 0 0 1-.078 1.084l-.567.499a.78.78 0 0 1-.524.2.538.538 0 0 1-.073 0 .795.795 0 0 1-.55-.303l-1.473-1.91-1.482 1.915a.795.795 0 0 1-.55.303h-.073a.787.787 0 0 1-.524-.2l-.568-.499a.79.79 0 0 1-.086-1.09l1.858-2.266-1.23-1.592a.21.21 0 0 1-.011-.02c-.557-.968.695-3.113.84-3.355a.167.167 0 0 1 .057-.053l.024-.015a4.657 4.657 0 0 1 3.475 0 .18.18 0 0 1 .03.018.088.088 0 0 1 .016.01.166.166 0 0 1 .035.042c.145.241 1.397 2.387.84 3.355a.21.21 0 0 1-.011.02l-1.23 1.591zm-3.265-4.007l.853-1.053a2.58 2.58 0 0 0-1.724 0zm2.367-.05c.294-.539-.171-1.716-.56-2.495a3.63 3.63 0 0 1-.68 1.682l-.919 1.124.985 1.204 1.174-1.52zm-.877-2.988v.002l.007.003zm0 .002a4.345 4.345 0 0 0-2.99-.004l.055.662v.023c.006.033.015.068.023.1l.02.075.023.083.029.088.02.061c.013.038.026.076.041.11l.01.03c.062.155.136.306.22.45a2.93 2.93 0 0 1 2.107 0c.083-.141.155-.29.216-.443.005-.013.017-.028.017-.043l.035-.094c.008-.025.02-.053.026-.076l.022-.073c.01-.031.028-.064.028-.098l.015-.057.029-.116v-.019zm-1.711 6.34l-.649-.84-.349-.453-1.811 2.207a.452.452 0 0 0 .05.625l.567.5a.452.452 0 0 0 .665-.064zm3.217.897l-1.938-2.368-1.204-1.474-.998-1.23a3.61 3.61 0 0 1-.68-1.68c-.393.778-.855 1.956-.56 2.494l1.303 1.687 1.206 1.563 1.605 2.081c.076.1.19.164.316.175a.45.45 0 0 0 .344-.112l.566-.499a.452.452 0 0 0 .04-.637z"/></g></g></g></g><g><g><g><g><path fill="#54bbbf" d="M60.662 33.99a.151.151 0 0 0-.197.084.549.549 0 0 1-1.02 0 .151.151 0 0 0-.279.113.852.852 0 0 0 1.579 0 .15.15 0 0 0-.083-.196"/></g><g><path fill="none" stroke="#54bbbf" stroke-miterlimit="50" stroke-width=".6" d="M60.662 33.99a.151.151 0 0 0-.197.084.549.549 0 0 1-1.02 0 .151.151 0 0 0-.279.113.852.852 0 0 0 1.579 0 .15.15 0 0 0-.083-.196z"/></g><g><path fill="#54bbbf" d="M59.081 32.96a.151.151 0 0 0-.151.151v.084a.151.151 0 0 0 .3 0v-.084a.15.15 0 0 0-.149-.151"/></g><g><path fill="none" stroke="#54bbbf" stroke-miterlimit="50" stroke-width=".6" d="M59.081 32.96a.151.151 0 0 0-.151.151v.084a.151.151 0 0 0 .3 0v-.084a.15.15 0 0 0-.149-.151z"/></g><g><path fill="#54bbbf" d="M60.821 32.96a.151.151 0 0 0-.151.151v.084a.151.151 0 0 0 .301 0v-.084a.15.15 0 0 0-.15-.151"/></g><g><path fill="none" stroke="#54bbbf" stroke-miterlimit="50" stroke-width=".6" d="M60.821 32.96a.151.151 0 0 0-.151.151v.084a.151.151 0 0 0 .301 0v-.084a.15.15 0 0 0-.15-.151z"/></g><g><path fill="#54bbbf" d="M55.482 33.99a.151.151 0 0 0-.197.084.549.549 0 0 1-1.02 0 .151.151 0 0 0-.279.113.852.852 0 0 0 1.579 0 .15.15 0 0 0-.083-.196"/></g><g><path fill="none" stroke="#54bbbf" stroke-miterlimit="50" stroke-width=".6" d="M55.482 33.99a.151.151 0 0 0-.197.084.549.549 0 0 1-1.02 0 .151.151 0 0 0-.279.113.852.852 0 0 0 1.579 0 .15.15 0 0 0-.083-.196z"/></g><g><path fill="#54bbbf" d="M53.911 32.96a.151.151 0 0 0-.151.151v.084a.151.151 0 0 0 .301 0v-.084a.15.15 0 0 0-.15-.151"/></g><g><path fill="none" stroke="#54bbbf" stroke-miterlimit="50" stroke-width=".6" d="M53.911 32.96a.151.151 0 0 0-.151.151v.084a.151.151 0 0 0 .301 0v-.084a.15.15 0 0 0-.15-.151z"/></g><g><path fill="#54bbbf" d="M55.651 32.96a.151.151 0 0 0-.151.151v.083a.151.151 0 0 0 .303 0v-.083a.151.151 0 0 0-.152-.151"/></g><g><path fill="none" stroke="#54bbbf" stroke-miterlimit="50" stroke-width=".6" d="M55.651 32.96a.151.151 0 0 0-.151.151v.083a.151.151 0 0 0 .303 0v-.083a.151.151 0 0 0-.152-.151z"/></g><g><path fill="#54bbbf" d="M62.274 32.122a.15.15 0 0 1-.151-.15v-.419a.778.778 0 0 0-.777-.776h-.301a.15.15 0 0 1-.138-.09l-.065-.148a.47.47 0 0 0-.433-.285h-.997c-.9.002-1.628.731-1.629 1.63v1.141a.55.55 0 0 1 .288-.091v-.81a.166.166 0 0 1 .058-.112.151.151 0 0 1 .122-.028 3.724 3.724 0 0 0 3.062-.777.153.153 0 0 1 .22.032c.197.282.302.619.3.963v.722a.557.557 0 0 1 .29.091v-.34a.151.151 0 1 1 .3 0v2.278a.81.81 0 0 1-.808.808h-.863v.218h.314c.679.001 1.229.55 1.23 1.23v2.018a.15.15 0 0 1-.152.15h-3.659a.15.15 0 0 1-.151-.15v-1.734h-.754a.151.151 0 0 1 0-.301h.905a.15.15 0 0 1 .151.15v1.734h2.643v-1.01a.151.151 0 1 1 .301 0v1.01h.423v-1.868a.928.928 0 0 0-.927-.926h-.314v.075c0 .434-.652.811-.727.851a.146.146 0 0 1-.146 0c-.075-.04-.727-.417-.727-.851v-.075H56.71c.27.232.425.57.425.926v2.018a.15.15 0 0 1-.152.15H52.6a.15.15 0 0 1-.151-.15v-1.609a.526.526 0 0 1-.308-.477v-.822c0-.29.237-.525.527-.525h.368a.43.43 0 0 1 .37.214c.09-.02.18-.03.272-.03h.314v-.287a1.876 1.876 0 0 1-1.066-1.462.557.557 0 0 1-.555-.556v-.191c0-.124.042-.244.12-.341a5.593 5.593 0 0 1-.155-.674 9.41 9.41 0 0 1 0-.998.75.75 0 0 1 .748-.746h.166l.5-.5a.753.753 0 0 1 .703-.199l1.896.45c.304.074.625.003.87-.192a.316.316 0 0 1 .499.324l-.13.471a.151.151 0 0 1-.293-.075l.115-.45a.013.013 0 0 0 0-.017h-.018a1.317 1.317 0 0 1-1.128.253l-1.896-.453a.452.452 0 0 0-.42.12l-.54.539a.151.151 0 0 1-.106.045h-.23c-.247 0-.447.2-.447.447 0 .2-.023.764 0 .951.03.178.07.353.12.526a.542.542 0 0 1 .156-.028v-.49c0-.08.062-.147.141-.152.395-.027.474-.107.474-.48a.151.151 0 0 1 .283-.074c.145.214.344.386.577.499.544.28 1.263.293 2.094.038a.15.15 0 0 1 .195.145v.509c.048.001.096.01.143.023l.32-1.272a.151.151 0 0 1 .294.075l-.348 1.372c.084.1.13.225.13.356v.193a.556.556 0 0 1-.554.555 1.886 1.886 0 0 1-1.066 1.462v.288h3.572v-.213h-.863a.81.81 0 0 1-.81-.808V31.88a1.934 1.934 0 0 1 1.931-1.931h.998c.308 0 .588.183.71.466l.024.056h.202a1.078 1.078 0 0 1 1.078 1.078v.42a.15.15 0 0 1-.15.149zm-9.06 1.958c.032.614.415 1.153.983 1.385h.009a1.588 1.588 0 0 0 1.678-.322 1.58 1.58 0 0 0 .49-1.064.15.15 0 0 1 .15-.144h.138a.253.253 0 0 0 .253-.255v-.192a.253.253 0 0 0-.253-.253h-.135a.151.151 0 0 1-.151-.152v-.46c-.621.163-1.443.246-2.149-.126a1.936 1.936 0 0 1-.448-.323c-.076.24-.253.363-.568.407v.5a.152.152 0 0 1-.151.152h-.143a.253.253 0 0 0-.254.254v.193a.254.254 0 0 0 .254.255h.138a.15.15 0 0 1 .15.144zm2.075 1.725a1.877 1.877 0 0 1-1.007 0v.559a.504.504 0 1 0 1.007 0zm-2.855 1.338c0 .06.024.117.067.16.042.041.1.065.16.065h.373c.07-.001.126-.057.126-.127v-1.02a.127.127 0 0 0-.126-.124h-.372a.229.229 0 0 0-.161.066.223.223 0 0 0-.067.159zm4.407.07a.933.933 0 0 0-.932-.93h-.316v.076a.803.803 0 0 1-1.606 0v-.076h-.315a.927.927 0 0 0-.216.026v.936a.43.43 0 0 1-.429.429h-.287v1.414h.424v-1.014a.152.152 0 0 1 .304 0v1.014h2.645v-1.014a.152.152 0 1 1 .302 0v1.014h.426zm3.614-1.409a1.894 1.894 0 0 1-1.007 0v.554c0 .167.273.403.503.546.23-.143.504-.38.504-.546zm1.658-1.664a.55.55 0 0 1-.304.091 1.875 1.875 0 0 1-.7 1.236h.499c.28-.001.506-.228.507-.507v-.82zm-4.03-.91a.253.253 0 0 0-.254.253v.193a.252.252 0 0 0 .254.254h.139a.15.15 0 0 1 .15.143 1.58 1.58 0 0 0 .983 1.38h.01a1.606 1.606 0 0 0 1.18.002c.57-.232.955-.77.989-1.382a.15.15 0 0 1 .15-.143h.139a.254.254 0 0 0 .253-.254v-.192a.253.253 0 0 0-.253-.253h-.136a.152.152 0 0 1-.152-.15v-.877c0-.23-.058-.454-.166-.656a4.063 4.063 0 0 1-3.005.764v.768a.152.152 0 0 1-.152.151h-.129zm-.001 1a.55.55 0 0 1-.308-.092v.82c.001.28.23.506.512.507h.504a1.87 1.87 0 0 1-.705-1.236z"/></g><g><path fill="none" stroke="#54bbbf" stroke-miterlimit="50" stroke-width=".6" d="M62.276 32.117a.15.15 0 0 1-.153-.145v-.419a.778.778 0 0 0-.777-.776h-.301a.15.15 0 0 1-.138-.09l-.065-.148a.47.47 0 0 0-.433-.285h-.997c-.9.002-1.628.731-1.629 1.63v1.141a.55.55 0 0 1 .288-.091v-.81a.166.166 0 0 1 .058-.112.151.151 0 0 1 .122-.028 3.724 3.724 0 0 0 3.062-.777.153.153 0 0 1 .22.032c.197.282.302.619.3.963v.722a.557.557 0 0 1 .29.091v-.34a.151.151 0 1 1 .3 0v2.278a.81.81 0 0 1-.808.808h-.863v.218h.314c.679.001 1.229.55 1.23 1.23v2.018a.15.15 0 0 1-.152.15h-3.659a.15.15 0 0 1-.151-.15v-1.734h-.754a.151.151 0 0 1 0-.301h.905a.15.15 0 0 1 .151.15v1.734h2.643v-1.01a.151.151 0 1 1 .301 0v1.01h.423v-1.868a.928.928 0 0 0-.927-.926h-.314v.075c0 .434-.652.811-.727.851a.146.146 0 0 1-.146 0c-.075-.04-.727-.417-.727-.851v-.075H56.71c.27.232.425.57.425.926v2.018a.15.15 0 0 1-.152.15H52.6a.15.15 0 0 1-.151-.15v-1.609a.526.526 0 0 1-.308-.477v-.822c0-.29.237-.525.527-.525h.368a.43.43 0 0 1 .37.214c.09-.02.18-.03.272-.03h.314v-.287a1.876 1.876 0 0 1-1.066-1.462.557.557 0 0 1-.555-.556v-.191c0-.124.042-.244.12-.341a5.593 5.593 0 0 1-.155-.674 9.41 9.41 0 0 1 0-.998.75.75 0 0 1 .748-.746h.166l.5-.5a.753.753 0 0 1 .703-.199l1.896.45c.304.074.625.003.87-.192a.316.316 0 0 1 .499.324l-.13.471a.151.151 0 0 1-.293-.075l.115-.45a.013.013 0 0 0 0-.017h-.018a1.317 1.317 0 0 1-1.128.253l-1.896-.453a.452.452 0 0 0-.42.12l-.54.539a.151.151 0 0 1-.106.045h-.23c-.247 0-.447.2-.447.447 0 .2-.023.764 0 .951.03.178.07.353.12.526a.542.542 0 0 1 .156-.028v-.49c0-.08.062-.147.141-.152.395-.027.474-.107.474-.48a.151.151 0 0 1 .283-.074c.145.214.344.386.577.499.544.28 1.263.293 2.094.038a.15.15 0 0 1 .195.145v.509c.048.001.096.01.143.023l.32-1.272a.151.151 0 0 1 .294.075l-.348 1.372c.084.1.13.225.13.356v.193a.556.556 0 0 1-.554.555 1.886 1.886 0 0 1-1.066 1.462v.288h3.572v-.213h-.863a.81.81 0 0 1-.81-.808V31.88a1.934 1.934 0 0 1 1.931-1.931h.998c.308 0 .588.183.71.466l.024.056h.202a1.078 1.078 0 0 1 1.078 1.078v.42a.15.15 0 0 1-.15.149zm-9.071 1.96c.032.617.42 1.159.992 1.388h.009a1.588 1.588 0 0 0 1.678-.322 1.58 1.58 0 0 0 .49-1.064.15.15 0 0 1 .15-.144h.138a.253.253 0 0 0 .253-.255v-.192a.253.253 0 0 0-.253-.253h-.135a.151.151 0 0 1-.151-.152v-.46c-.621.163-1.443.246-2.149-.126a1.936 1.936 0 0 1-.448-.323c-.076.24-.253.363-.568.407v.5a.152.152 0 0 1-.151.152h-.143a.253.253 0 0 0-.254.254v.193a.254.254 0 0 0 .254.255h.138a.15.15 0 0 1 .15.144zm2.084 1.726a1.877 1.877 0 0 1-1.007.002v.559a.504.504 0 1 0 1.007 0zm-2.855 1.339c0 .06.023.117.066.16.043.042.101.066.162.066h.372c.07-.001.126-.057.126-.127v-1.02a.127.127 0 0 0-.126-.124h-.372a.229.229 0 0 0-.161.066.223.223 0 0 0-.067.159zm4.407.07a.933.933 0 0 0-.932-.929h-.316v.076a.803.803 0 0 1-1.606 0v-.076h-.315a.927.927 0 0 0-.216.026v.936a.43.43 0 0 1-.429.429h-.287v1.414h.424v-1.014a.152.152 0 0 1 .304 0v1.014h2.645v-1.014a.152.152 0 1 1 .302 0v1.014h.426zm3.614-1.408a1.894 1.894 0 0 1-1.007 0v.554c0 .167.273.403.503.546.23-.143.504-.38.504-.546zm1.66-1.666a.55.55 0 0 1-.306.093 1.875 1.875 0 0 1-.7 1.236h.499c.28-.001.506-.228.507-.507zm-4.032-.908a.253.253 0 0 0-.254.253v.193a.252.252 0 0 0 .254.254h.139a.15.15 0 0 1 .15.143 1.58 1.58 0 0 0 .983 1.38h.01a1.606 1.606 0 0 0 1.18.002c.57-.232.955-.77.989-1.382a.15.15 0 0 1 .15-.143h.139a.254.254 0 0 0 .253-.254v-.192a.253.253 0 0 0-.253-.253h-.136a.152.152 0 0 1-.152-.15v-.877c0-.23-.058-.454-.166-.656a4.063 4.063 0 0 1-3.005.764v.768a.152.152 0 0 1-.152.151h-.129zm.002 1a.55.55 0 0 1-.31-.092v.82c0 .28.229.506.511.507h.504a1.87 1.87 0 0 1-.705-1.236z"/></g></g></g></g><g><g><g><g><path fill="#54bbbf" d="M26.422 30.39a.55.55 0 0 1 .55.55v7.888a.55.55 0 0 1-.55.55h-6.361a.55.55 0 0 1-.551-.55v-1.69a.138.138 0 0 1 .276 0v1.687c0 .151.123.274.275.274h6.361a.274.274 0 0 0 .275-.274V30.94a.274.274 0 0 0-.261-.271h-.333v7.762a.138.138 0 0 1-.138.138H20.53a.138.138 0 0 1-.138-.138v-7.766h-.332a.274.274 0 0 0-.275.275v5.541a.138.138 0 1 1-.276 0v-5.545a.55.55 0 0 1 .55-.55h1.178c.001-.24.196-.435.436-.436h3.137c.24 0 .434.195.435.436v.597c0 .24-.195.435-.435.436h-.654a.772.772 0 0 1-.76.633h-.308a.772.772 0 0 1-.76-.633h-.654a.437.437 0 0 1-.435-.436v-.314h-.576v7.62h5.156v-7.627h-.086a.138.138 0 1 1 0-.276h.688zm-4.914.593c0 .092.074.166.166.166h.777c.076 0 .138.062.138.138 0 .276.223.5.499.5h.31a.499.499 0 0 0 .5-.5.14.14 0 0 1 .14-.138h.778a.166.166 0 0 0 .166-.166v-.597a.166.166 0 0 0-.166-.167H21.68a.166.166 0 0 0-.166.167z"/></g><g><path fill="none" stroke="#54bbbf" stroke-miterlimit="50" stroke-width=".6" d="M26.422 30.392a.55.55 0 0 1 .55.548v7.888a.55.55 0 0 1-.55.55h-6.361a.55.55 0 0 1-.551-.55v-1.69a.138.138 0 0 1 .276 0v1.687c0 .151.123.274.275.274h6.361a.274.274 0 0 0 .275-.274V30.94a.274.274 0 0 0-.261-.271h-.333v7.762a.138.138 0 0 1-.138.138H20.53a.138.138 0 0 1-.138-.138v-7.766h-.332a.274.274 0 0 0-.275.275v5.541a.138.138 0 1 1-.276 0v-5.545a.55.55 0 0 1 .55-.55h1.178c.001-.24.196-.435.436-.436h3.137c.24 0 .434.195.435.436v.597c0 .24-.195.435-.435.436h-.654a.772.772 0 0 1-.76.633h-.308a.772.772 0 0 1-.76-.633h-.654a.437.437 0 0 1-.435-.436v-.314h-.576v7.62h5.156v-7.627h-.086a.138.138 0 1 1 0-.276h.688zm-4.914.59c0 .093.074.167.166.167h.777c.076 0 .138.062.138.138 0 .276.223.5.499.5h.31a.499.499 0 0 0 .5-.5.14.14 0 0 1 .14-.138h.778a.166.166 0 0 0 .166-.166v-.597a.166.166 0 0 0-.166-.167H21.68a.166.166 0 0 0-.166.167z"/></g><g><path fill="#54bbbf" d="M25.004 33.723h-.73l-.466-1.275a.14.14 0 0 0-.264.014l-.5 1.974-.483-1.409a.138.138 0 0 0-.251-.021l-.403.717h-.419a.138.138 0 1 0 0 .276h.499a.14.14 0 0 0 .121-.07l.291-.52.534 1.554a.138.138 0 0 0 .265-.01l.499-1.996.346.947c.02.054.072.09.13.09h.831a.138.138 0 0 0 0-.276"/></g><g><path fill="none" stroke="#54bbbf" stroke-miterlimit="50" stroke-width=".6" d="M25.004 33.723v0h-.73v0l-.466-1.275a.14.14 0 0 0-.264.014l-.5 1.974v0l-.483-1.409a.138.138 0 0 0-.251-.021l-.403.717v0h-.419a.138.138 0 1 0 0 .276h.499a.14.14 0 0 0 .121-.07l.291-.52v0l.534 1.554a.138.138 0 0 0 .265-.01l.499-1.996v0l.346.947c.02.054.072.09.13.09h.831a.138.138 0 0 0 0-.276z"/></g><g><path fill="#54bbbf" d="M24.996 36.01h-3.518a.138.138 0 1 0 0 .276h3.518a.138.138 0 1 0 0-.276"/></g><g><path fill="none" stroke="#54bbbf" stroke-miterlimit="50" stroke-width=".6" d="M24.996 36.01h-3.518a.138.138 0 1 0 0 .276h3.518a.138.138 0 1 0 0-.276z"/></g><g><path fill="#54bbbf" d="M24.996 37.22h-3.518a.138.138 0 0 0 0 .276h3.518a.138.138 0 1 0 0-.276"/></g><g><path fill="none" stroke="#54bbbf" stroke-miterlimit="50" stroke-width=".6" d="M24.996 37.22h-3.518a.138.138 0 0 0 0 .276h3.518a.138.138 0 1 0 0-.276z"/></g></g></g></g></g></g></svg>