<svg xmlns="http://www.w3.org/2000/svg" width="89" height="82" viewBox="0 0 89 82"><g><g><g><path fill="#54bbbf" d="M86.956 51.513a5.401 5.401 0 0 1-.871 7.043L68.852 74.11l-.045.04a13.035 13.035 0 0 1-6.187 2.781l-.018.003-26.674 3.86a7.993 7.993 0 0 1-1.254.098 8.62 8.62 0 0 1-2.356-.336 1.198 1.198 0 0 1-.103-.033l-18.15-6.899v.17c0 2.503-2.03 4.54-4.524 4.54H5.575c-2.495 0-4.525-2.037-4.525-4.54v-2.178c0-.686.555-1.243 1.24-1.243.684 0 1.239.557 1.239 1.243v2.177c0 1.132.918 2.053 2.046 2.053H9.54a2.052 2.052 0 0 0 2.045-2.053V44.337a2.052 2.052 0 0 0-2.045-2.053H5.575a2.052 2.052 0 0 0-2.046 2.053v19.492c0 .687-.555 1.244-1.24 1.244-.684 0-1.239-.557-1.239-1.244V44.337c0-2.504 2.03-4.541 4.525-4.541H9.54c2.495 0 4.524 2.037 4.524 4.541v.746h2.121c1.263 0 2.52.095 3.763.277l-.015-10.943-3.841 3.631a4.359 4.359 0 0 1-3.148 1.2 4.363 4.363 0 0 1-3.07-1.386 4.395 4.395 0 0 1-1.196-3.16 4.394 4.394 0 0 1 1.38-3.081L20.14 22.09l-.02-12.1c0-.529.204-1.026.576-1.4.372-.375.866-.581 1.393-.582l7.114-.01h.003c.526 0 1.02.205 1.392.578.373.373.579.87.58 1.398l.002 1.677 9.945-9.402a4.395 4.395 0 0 1 6.024-.009l18.175 17.088c.5.47.525 1.257.057 1.759a1.236 1.236 0 0 1-1.752.057L45.454 4.056a1.918 1.918 0 0 0-2.63.004L11.76 33.43c-.373.353-.587.831-.602 1.346-.016.514.17 1.004.521 1.379.352.375.828.59 1.341.605.513.014 1-.17 1.374-.523l28.905-27.33a1.236 1.236 0 0 1 1.697-.002l28.98 27.248c.357.336.823.52 1.312.52h.003c.536 0 1.033-.217 1.4-.609a1.92 1.92 0 0 0 .518-1.38 1.919 1.919 0 0 0-.607-1.344l-7.298-6.862a1.247 1.247 0 0 1-.057-1.759 1.236 1.236 0 0 1 1.751-.057l7.299 6.862a4.394 4.394 0 0 1 1.39 3.078 4.409 4.409 0 0 1-4.391 4.56h-.008a4.374 4.374 0 0 1-3.006-1.193l-3.85-3.62.032 23.168 11.081-7.443c2.435-1.643 5.76-.998 7.412 1.438zM22.6 10.495l.015 9.255 6.09-5.759-.005-3.504zm-.19 21.581l.019 13.767c.082.02.162.043.243.064.174.045.347.09.52.138.132.037.263.076.395.114a26.81 26.81 0 0 1 1.745.584 27.86 27.86 0 0 1 .84.33l.394.17c.144.062.288.124.43.189.14.063.279.13.418.197.13.062.262.123.392.188.163.081.324.166.486.25.104.056.209.108.312.164.266.144.529.292.79.445a23.504 23.504 0 0 0 6.663 2.65l-.02-14.091c-.001-.601.232-1.167.655-1.593.423-.426.986-.66 1.585-.661l11.813-.017h.003a2.25 2.25 0 0 1 2.243 2.248l.022 16.16a7.867 7.867 0 0 1 6.306 6.966l.098.99 3.716.21 3.509-2.357-.038-27.165-21.8-20.495zm27.447 5.376l-11.34.016.02 14.283.976.113 10.366 1.198zm34.566 19.252a2.905 2.905 0 0 0 .474-3.79 2.875 2.875 0 0 0-3.982-.772l-13.006 8.74-4.404 2.96a1.24 1.24 0 0 1-.168.094c-.02.01-.042.016-.062.024a1.116 1.116 0 0 1-.117.043c-.025.007-.051.012-.077.017a1.314 1.314 0 0 1-.11.021c-.027.003-.055.004-.082.006-.025.002-.049.006-.074.006-.023 0-.046 0-.069-.002l-5.188-.292-.02-.002-.019-.001-27.51-2.42a1.243 1.243 0 0 1-1.127-1.349c.06-.684.661-1.19 1.342-1.13l26.022 2.288-.055-.556a5.383 5.383 0 0 0-4.593-4.82l-13.884-1.606a25.96 25.96 0 0 1-9.574-3.339 23.25 23.25 0 0 0-.618-.35c-.039-.02-.078-.042-.116-.063-.206-.11-.413-.22-.622-.324l-.075-.037a23.58 23.58 0 0 0-.645-.31l-.018-.009a22.68 22.68 0 0 0-.75-.328c-.455-.19-.915-.367-1.38-.528l-.07-.024c-.223-.077-.447-.15-.673-.22l-.114-.034a23.931 23.931 0 0 0-.638-.185l-.055-.016a23.082 23.082 0 0 0-.836-.21 23.57 23.57 0 0 0-5.344-.615h-2.12v23.401l18.972 7.215a5.882 5.882 0 0 0 2.5.16l.019-.003.017-.002 26.658-3.859a10.556 10.556 0 0 0 4.978-2.234z"/></g><g><path fill="none" stroke="#54bbbf" stroke-miterlimit="50" stroke-width=".6" d="M86.085 58.556L68.852 74.11l-.045.04a13.035 13.035 0 0 1-6.187 2.781l-.018.003-26.674 3.86a7.993 7.993 0 0 1-1.254.098 8.62 8.62 0 0 1-2.356-.336 1.198 1.198 0 0 1-.103-.033l-18.15-6.899v.17c0 2.503-2.03 4.54-4.524 4.54H5.575c-2.495 0-4.525-2.037-4.525-4.54v-2.178c0-.686.555-1.243 1.24-1.243.684 0 1.239.557 1.239 1.243v2.177c0 1.132.918 2.053 2.046 2.053H9.54a2.052 2.052 0 0 0 2.045-2.053V44.337a2.052 2.052 0 0 0-2.045-2.053H5.575a2.052 2.052 0 0 0-2.046 2.053v19.492c0 .687-.555 1.244-1.24 1.244-.684 0-1.239-.557-1.239-1.244V44.337c0-2.504 2.03-4.541 4.525-4.541H9.54c2.495 0 4.524 2.037 4.524 4.541v.746h2.121c1.263 0 2.52.095 3.763.277l-.015-10.943-3.841 3.631a4.359 4.359 0 0 1-3.148 1.2 4.363 4.363 0 0 1-3.07-1.386 4.395 4.395 0 0 1-1.196-3.16 4.394 4.394 0 0 1 1.38-3.081L20.14 22.09l-.02-12.1c0-.529.204-1.026.576-1.4.372-.375.866-.581 1.393-.582l7.114-.01h.003c.526 0 1.02.205 1.392.578.373.373.579.87.58 1.398l.002 1.677 9.945-9.402a4.395 4.395 0 0 1 6.024-.009l18.175 17.088c.5.47.525 1.257.057 1.759a1.236 1.236 0 0 1-1.752.057L45.454 4.056a1.918 1.918 0 0 0-2.63.004L11.76 33.43c-.373.353-.587.831-.602 1.346-.016.514.17 1.004.521 1.379.352.375.828.59 1.341.605.513.014 1-.17 1.374-.523l28.905-27.33a1.236 1.236 0 0 1 1.697-.002l28.98 27.248h0c.357.336.823.52 1.312.52h.003c.536 0 1.033-.217 1.4-.609a1.92 1.92 0 0 0 .518-1.38 1.919 1.919 0 0 0-.607-1.344l-7.298-6.862a1.247 1.247 0 0 1-.057-1.759 1.236 1.236 0 0 1 1.751-.057l7.299 6.862a4.394 4.394 0 0 1 1.39 3.078 4.409 4.409 0 0 1-4.391 4.56h-.008a4.374 4.374 0 0 1-3.006-1.193l-3.85-3.62.032 23.168 11.081-7.443c2.435-1.643 5.76-.998 7.412 1.438a5.401 5.401 0 0 1-.871 7.043zM22.6 10.496l.015 9.254 6.09-5.759-.005-3.504zm-.19 21.58l.019 13.767c.082.02.162.043.243.064.174.045.347.09.52.138.132.037.263.076.395.114a26.81 26.81 0 0 1 1.745.584 27.86 27.86 0 0 1 .84.33l.394.17c.144.062.288.124.43.189.14.063.279.13.418.197.13.062.262.123.392.188.163.081.324.166.486.25.104.056.209.108.312.164.266.144.529.292.79.445a23.504 23.504 0 0 0 6.663 2.65l-.02-14.091c-.001-.601.232-1.167.655-1.593.423-.426.986-.66 1.585-.661l11.813-.017h.003a2.25 2.25 0 0 1 2.243 2.248l.022 16.16a7.867 7.867 0 0 1 6.306 6.966l.098.99 3.716.21 3.509-2.357-.038-27.165-21.8-20.495zm27.447 5.376l-11.34.016.02 14.283.976.113 10.366 1.198zm35.04 15.463a2.875 2.875 0 0 0-3.982-.773l-13.006 8.74h0l-4.404 2.96a1.24 1.24 0 0 1-.168.094c-.02.01-.042.016-.062.024a1.116 1.116 0 0 1-.117.043c-.025.007-.051.012-.077.017a1.314 1.314 0 0 1-.11.021c-.027.003-.055.004-.082.006-.025.002-.049.006-.074.006-.023 0-.046 0-.069-.002l-5.188-.292-.02-.002-.019-.001-27.51-2.42a1.243 1.243 0 0 1-1.127-1.349c.06-.684.661-1.19 1.342-1.13l26.022 2.288-.055-.556a5.383 5.383 0 0 0-4.593-4.82l-13.884-1.606a25.96 25.96 0 0 1-9.574-3.339 23.25 23.25 0 0 0-.618-.35c-.039-.02-.078-.042-.116-.063-.206-.11-.413-.22-.622-.324l-.075-.037a23.58 23.58 0 0 0-.645-.31l-.018-.009a22.68 22.68 0 0 0-.75-.328c-.455-.19-.915-.367-1.38-.528l-.07-.024c-.223-.077-.447-.15-.673-.22l-.114-.034a23.931 23.931 0 0 0-.638-.185l-.055-.016a23.082 23.082 0 0 0-.836-.21 23.57 23.57 0 0 0-5.344-.615h-2.12v23.401l18.972 7.215a5.882 5.882 0 0 0 2.5.16l.019-.003.017-.002 26.658-3.859a10.556 10.556 0 0 0 4.978-2.234l17.213-15.545a2.905 2.905 0 0 0 .474-3.79z"/></g></g></g></svg>