<svg xmlns="http://www.w3.org/2000/svg" width="30" height="30" viewBox="0 0 30 30"><g><g><g><path fill="#54bbbf" d="M30 15c0 8.284-6.716 15-15 15-8.284 0-15-6.716-15-15C0 6.716 6.716 0 15 0c8.284 0 15 6.716 15 15"/></g><g><path fill="#fff" d="M12.253 22.914c6.651 0 10.288-5.51 10.288-10.288 0-.157-.003-.313-.01-.468a7.357 7.357 0 0 0 1.804-1.872 7.218 7.218 0 0 1-2.077.569 3.629 3.629 0 0 0 1.59-2 7.246 7.246 0 0 1-2.296.877 3.617 3.617 0 0 0-6.162 3.298 10.266 10.266 0 0 1-7.453-3.778 3.613 3.613 0 0 0 1.12 4.827 3.589 3.589 0 0 1-1.639-.452v.046a3.618 3.618 0 0 0 2.9 3.545 3.628 3.628 0 0 1-1.632.062 3.62 3.62 0 0 0 3.378 2.512 7.256 7.256 0 0 1-4.491 1.548c-.292 0-.58-.017-.863-.05 1.6 1.025 3.5 1.624 5.543 1.624"/></g></g></g></svg>